<svg width="61" height="60" viewBox="0 0 61 60" fill="none" xmlns="http://www.w3.org/2000/svg">
<rect x="0.5" width="60" height="60" rx="8" fill="#FEFEFE"/>
<g clip-path="url(#clip0_561_38510)">
<path fill-rule="evenodd" clip-rule="evenodd" d="M28.947 15.2927C29.5388 15.0707 30.1855 15.0413 30.795 15.2087L31.053 15.2927L41.553 19.2302C42.0852 19.4297 42.5497 19.7763 42.8926 20.2296C43.2354 20.6829 43.4424 21.2243 43.4895 21.7907L43.5 22.0397V30.0842C43.4997 32.5145 42.8433 34.8998 41.6 36.9881C40.3568 39.0764 38.5729 40.7904 36.4365 41.9492L36.0375 42.1592L31.0065 44.6732C30.7296 44.8117 30.4271 44.8916 30.1179 44.9079C29.8086 44.9241 29.4994 44.8764 29.2095 44.7677L28.9935 44.6732L23.9625 42.1577C21.7884 41.0706 19.9482 39.4167 18.636 37.3706C17.3238 35.3245 16.5885 32.962 16.5075 30.5327L16.5 30.0827V22.0412C16.5 21.4729 16.6614 20.9162 16.9655 20.4361C17.2696 19.956 17.7037 19.5721 18.2175 19.3292L18.447 19.2317L28.947 15.2942V15.2927ZM28.7145 24.2282L25.728 29.2052C25.5899 29.4351 25.5154 29.6975 25.5119 29.9656C25.5084 30.2338 25.5762 30.498 25.7083 30.7314C25.8404 30.9648 26.0321 31.1589 26.2638 31.294C26.4955 31.4291 26.7588 31.5002 27.027 31.5002H30.351L28.7145 34.2287C28.5234 34.569 28.4725 34.9704 28.5725 35.3476C28.6725 35.7249 28.9157 36.0483 29.2503 36.2492C29.5849 36.45 29.9847 36.5126 30.3647 36.4235C30.7447 36.3345 31.075 36.1008 31.2855 35.7722L34.272 30.7952C34.4101 30.5653 34.4846 30.3028 34.4881 30.0347C34.4916 29.7665 34.4238 29.5023 34.2917 29.2689C34.1596 29.0355 33.9679 28.8414 33.7362 28.7063C33.5045 28.5713 33.2412 28.5001 32.973 28.5002H29.649L31.2855 25.7717C31.4766 25.4313 31.5275 25.03 31.4275 24.6527C31.3275 24.2755 31.0843 23.952 30.7497 23.7512C30.4151 23.5503 30.0153 23.4877 29.6353 23.5768C29.2553 23.6658 28.925 23.8995 28.7145 24.2282Z" fill="#591DDD"/>
</g>
<defs>
<clipPath id="clip0_561_38510">
<rect width="36" height="36" fill="white" transform="translate(12 12)"/>
</clipPath>
</defs>
</svg>
