<svg width="41" height="40" viewBox="0 0 41 40" fill="none" xmlns="http://www.w3.org/2000/svg">
<rect x="0.5" width="40" height="40" rx="8" fill="#FEFEFE"/>
<g clip-path="url(#clip0_561_38522)">
<path fill-rule="evenodd" clip-rule="evenodd" d="M19.466 10.1948C19.8605 10.0468 20.2917 10.0272 20.698 10.1388L20.87 10.1948L27.87 12.8198C28.2248 12.9528 28.5345 13.1839 28.763 13.4861C28.9916 13.7883 29.1296 14.1492 29.161 14.5268L29.168 14.6928V20.0558C29.1677 21.676 28.7301 23.2662 27.9013 24.6584C27.0725 26.0506 25.8832 27.1933 24.459 27.9658L24.193 28.1058L20.839 29.7818C20.6544 29.8741 20.4527 29.9274 20.2465 29.9383C20.0404 29.9491 19.8342 29.9173 19.641 29.8448L19.497 29.7818L16.143 28.1048C14.6936 27.3801 13.4667 26.2775 12.592 24.9134C11.7172 23.5493 11.2269 21.9744 11.173 20.3548L11.168 20.0548V14.6938C11.168 14.3149 11.2756 13.9438 11.4783 13.6237C11.681 13.3037 11.9705 13.0477 12.313 12.8858L12.466 12.8208L19.466 10.1958V10.1948ZM19.311 16.1518L17.32 19.4698C17.2279 19.623 17.1782 19.798 17.1759 19.9768C17.1736 20.1555 17.2188 20.3317 17.3069 20.4873C17.3949 20.6429 17.5227 20.7723 17.6772 20.8623C17.8316 20.9524 18.0072 20.9998 18.186 20.9998H20.402L19.311 22.8188C19.1836 23.0456 19.1496 23.3132 19.2163 23.5647C19.283 23.8162 19.4451 24.0319 19.6682 24.1658C19.8913 24.2997 20.1578 24.3414 20.4111 24.282C20.6644 24.2227 20.8846 24.0669 21.025 23.8478L23.016 20.5298C23.108 20.3765 23.1577 20.2016 23.16 20.0228C23.1623 19.844 23.1171 19.6679 23.0291 19.5123C22.941 19.3567 22.8132 19.2273 22.6588 19.1372C22.5043 19.0472 22.3287 18.9998 22.15 18.9998H19.934L21.025 17.1808C21.1524 16.9539 21.1863 16.6863 21.1196 16.4348C21.0529 16.1833 20.8908 15.9677 20.6678 15.8338C20.4447 15.6999 20.1782 15.6581 19.9249 15.7175C19.6715 15.7769 19.4513 15.9327 19.311 16.1518Z" fill="#591DDD"/>
<g filter="url(#filter0_d_561_38522)">
<rect x="22.5" y="23" width="40" height="40" rx="8" fill="#FEFEFE"/>
</g>
<g clip-path="url(#clip1_561_38522)">
<path d="M42.387 31L40.882 33.637C38.8559 34.0921 37.0322 35.1926 35.6851 36.773C34.3381 38.3534 33.5404 40.3284 33.412 42.401H35.822C35.9639 40.7059 36.7008 39.1156 37.9022 37.9115C39.1037 36.7073 40.6922 35.9668 42.387 35.821V33.425V31ZM43.6 33.411V35.821C45.2928 35.9658 46.8799 36.704 48.0812 37.9055C49.2825 39.1069 50.0205 40.6942 50.165 42.387H55L52.363 40.883C51.9085 38.8565 50.8085 37.0322 49.2282 35.6846C47.6479 34.337 45.6729 33.5398 43.6 33.411ZM42.987 36.701L42.241 41.256L43.733 42.254L44.731 43.746L49.286 42.986L44.731 42.241L46.702 39.284L43.746 41.255L42.987 36.701ZM43.733 42.254L39.284 39.284L42.254 43.733L46.702 46.703L43.733 42.254ZM42.254 43.733L41.255 42.241L36.701 43L41.255 43.746L39.285 46.703L42.228 44.732L42.987 49.286L43.746 44.732L42.254 43.733ZM42.987 42.467C43.267 42.467 43.507 42.707 43.507 42.987C43.507 43.0898 43.4765 43.1904 43.4194 43.2759C43.3622 43.3614 43.281 43.4281 43.186 43.4674C43.091 43.5068 42.9864 43.5171 42.8856 43.497C42.7847 43.4769 42.692 43.4274 42.6193 43.3547C42.5466 43.282 42.4971 43.1893 42.477 43.0884C42.4569 42.9876 42.4672 42.883 42.5066 42.788C42.5459 42.693 42.6126 42.6118 42.6981 42.5546C42.7836 42.4975 42.8842 42.467 42.987 42.467ZM31 43.6L33.638 45.104C34.0927 47.1303 35.1928 48.9543 36.7731 50.3018C38.3533 51.6492 40.3283 52.4473 42.401 52.576V50.165C40.7057 50.0232 39.1152 49.2863 37.9109 48.0846C36.7067 46.8829 35.9664 45.294 35.821 43.599H33.425L31 43.6ZM50.165 43.6C50.0203 45.2926 49.2821 46.8797 48.0809 48.0809C46.8797 49.2821 45.2926 50.0203 43.6 50.165V55L45.104 52.363C47.1305 51.9083 48.9546 50.808 50.3021 49.2275C51.6495 47.6471 52.4475 45.6719 52.576 43.599L50.165 43.6Z" fill="#591DDD"/>
</g>
</g>
<defs>
<filter id="filter0_d_561_38522" x="-13.5" y="-9" width="112" height="112" filterUnits="userSpaceOnUse" color-interpolation-filters="sRGB">
<feFlood flood-opacity="0" result="BackgroundImageFix"/>
<feColorMatrix in="SourceAlpha" type="matrix" values="0 0 0 0 0 0 0 0 0 0 0 0 0 0 0 0 0 0 127 0" result="hardAlpha"/>
<feOffset dy="4"/>
<feGaussianBlur stdDeviation="18"/>
<feComposite in2="hardAlpha" operator="out"/>
<feColorMatrix type="matrix" values="0 0 0 0 0.34902 0 0 0 0 0.113725 0 0 0 0 0.866667 0 0 0 0.75 0"/>
<feBlend mode="normal" in2="BackgroundImageFix" result="effect1_dropShadow_561_38522"/>
<feBlend mode="normal" in="SourceGraphic" in2="effect1_dropShadow_561_38522" result="shape"/>
</filter>
<clipPath id="clip0_561_38522">
<rect width="24" height="24" fill="white" transform="translate(8.16797 8)"/>
</clipPath>
<clipPath id="clip1_561_38522">
<rect width="24" height="24" fill="white" transform="translate(31 31)"/>
</clipPath>
</defs>
</svg>
