<svg width="61" height="60" viewBox="0 0 61 60" fill="none" xmlns="http://www.w3.org/2000/svg">
<rect x="0.980469" width="60" height="60" rx="15" fill="#FEFEFE"/>
<path d="M25.4805 30C26.4601 29.9999 27.4183 30.2877 28.2358 30.8275C29.0533 31.3673 29.6943 32.1354 30.079 33.0364C30.4638 33.9373 30.5754 34.9315 30.3999 35.8953C30.2245 36.8592 29.7698 37.7502 29.0923 38.4579C28.4148 39.1655 27.5443 39.6585 26.589 39.8756C25.6337 40.0928 24.6356 40.0245 23.7188 39.6793C22.802 39.334 22.0068 38.7271 21.4319 37.9338C20.8571 37.1405 20.528 36.1958 20.4855 35.217L20.4805 35L20.4855 34.783C20.5414 33.4958 21.0921 32.2798 22.0227 31.3887C22.9533 30.4975 24.192 30.0001 25.4805 30ZM36.4805 30C37.4601 29.9999 38.4183 30.2877 39.2358 30.8275C40.0533 31.3673 40.6943 32.1354 41.079 33.0364C41.4638 33.9373 41.5754 34.9315 41.3999 35.8953C41.2245 36.8592 40.7698 37.7502 40.0923 38.4579C39.4148 39.1655 38.5443 39.6585 37.589 39.8756C36.6337 40.0928 35.6356 40.0245 34.7188 39.6793C33.802 39.334 33.0068 38.7271 32.4319 37.9338C31.8571 37.1405 31.528 36.1958 31.4855 35.217L31.4805 35L31.4855 34.783C31.5414 33.4958 32.0921 32.2798 33.0227 31.3887C33.9533 30.4975 35.192 30.0001 36.4805 30ZM30.9805 20C31.9601 19.9999 32.9183 20.2877 33.7358 20.8275C34.5533 21.3673 35.1943 22.1354 35.579 23.0364C35.9638 23.9373 36.0754 24.9315 35.8999 25.8953C35.7245 26.8592 35.2698 27.7502 34.5923 28.4579C33.9148 29.1655 33.0443 29.6585 32.089 29.8756C31.1337 30.0928 30.1356 30.0245 29.2188 29.6793C28.302 29.334 27.5068 28.7271 26.9319 27.9338C26.3571 27.1405 26.028 26.1958 25.9855 25.217L25.9805 25L25.9855 24.783C26.0414 23.4958 26.5921 22.2798 27.5227 21.3887C28.4533 20.4975 29.692 20.0001 30.9805 20Z" fill="#591DDD"/>
</svg>
