<svg width="41" height="41" viewBox="0 0 41 41" fill="none" xmlns="http://www.w3.org/2000/svg">
<rect x="0.980469" y="0.625" width="40" height="40" rx="8" fill="#FEFEFE"/>
<path d="M34.906 9.59628H17.4947C17.3635 9.59628 17.2562 9.70361 17.2562 9.83479V11.5044C17.2562 11.6355 17.3635 11.7429 17.4947 11.7429H34.906C35.0372 11.7429 35.1445 11.6355 35.1445 11.5044V9.83479C35.1445 9.70361 35.0372 9.59628 34.906 9.59628ZM34.906 18.0634H17.4947C17.3635 18.0634 17.2562 18.1707 17.2562 18.3019V19.9715C17.2562 20.1027 17.3635 20.21 17.4947 20.21H34.906C35.0372 20.21 35.1445 20.1027 35.1445 19.9715V18.3019C35.1445 18.1707 35.0372 18.0634 34.906 18.0634ZM34.906 26.5306H17.4947C17.3635 26.5306 17.2562 26.6379 17.2562 26.7691V28.4386C17.2562 28.5698 17.3635 28.6772 17.4947 28.6772H34.906C35.0372 28.6772 35.1445 28.5698 35.1445 28.4386V26.7691C35.1445 26.6379 35.0372 26.5306 34.906 26.5306ZM10.8164 10.6696C10.8164 10.8888 10.8596 11.1059 10.9435 11.3085C11.0274 11.5111 11.1504 11.6951 11.3054 11.8501C11.4604 12.0052 11.6445 12.1282 11.8471 12.2121C12.0496 12.296 12.2667 12.3392 12.486 12.3392C12.7052 12.3392 12.9223 12.296 13.1249 12.2121C13.3275 12.1282 13.5115 12.0052 13.6666 11.8501C13.8216 11.6951 13.9446 11.5111 14.0285 11.3085C14.1124 11.1059 14.1556 10.8888 14.1556 10.6696C14.1556 10.4503 14.1124 10.2332 14.0285 10.0307C13.9446 9.8281 13.8216 9.64404 13.6666 9.48901C13.5115 9.33397 13.3275 9.21099 13.1249 9.12709C12.9223 9.04318 12.7052 9 12.486 9C12.2667 9 12.0496 9.04318 11.8471 9.12709C11.6445 9.21099 11.4604 9.33397 11.3054 9.48901C11.1504 9.64404 11.0274 9.8281 10.9435 10.0307C10.8596 10.2332 10.8164 10.4503 10.8164 10.6696ZM10.8164 19.1367C10.8164 19.356 10.8596 19.5731 10.9435 19.7756C11.0274 19.9782 11.1504 20.1623 11.3054 20.3173C11.4604 20.4723 11.6445 20.5953 11.8471 20.6792C12.0496 20.7631 12.2667 20.8063 12.486 20.8063C12.7052 20.8063 12.9223 20.7631 13.1249 20.6792C13.3275 20.5953 13.5115 20.4723 13.6666 20.3173C13.8216 20.1623 13.9446 19.9782 14.0285 19.7756C14.1124 19.5731 14.1556 19.356 14.1556 19.1367C14.1556 18.9175 14.1124 18.7004 14.0285 18.4978C13.9446 18.2952 13.8216 18.1112 13.6666 17.9561C13.5115 17.8011 13.3275 17.6781 13.1249 17.5942C12.9223 17.5103 12.7052 17.4671 12.486 17.4671C12.2667 17.4671 12.0496 17.5103 11.8471 17.5942C11.6445 17.6781 11.4604 17.8011 11.3054 17.9561C11.1504 18.1112 11.0274 18.2952 10.9435 18.4978C10.8596 18.7004 10.8164 18.9175 10.8164 19.1367ZM10.8164 27.6039C10.8164 27.8231 10.8596 28.0402 10.9435 28.2428C11.0274 28.4453 11.1504 28.6294 11.3054 28.7844C11.4604 28.9395 11.6445 29.0624 11.8471 29.1463C12.0496 29.2303 12.2667 29.2734 12.486 29.2734C12.7052 29.2734 12.9223 29.2303 13.1249 29.1463C13.3275 29.0624 13.5115 28.9395 13.6666 28.7844C13.8216 28.6294 13.9446 28.4453 14.0285 28.2428C14.1124 28.0402 14.1556 27.8231 14.1556 27.6039C14.1556 27.3846 14.1124 27.1675 14.0285 26.9649C13.9446 26.7624 13.8216 26.5783 13.6666 26.4233C13.5115 26.2683 13.3275 26.1453 13.1249 26.0614C12.9223 25.9775 12.7052 25.9343 12.486 25.9343C12.2667 25.9343 12.0496 25.9775 11.8471 26.0614C11.6445 26.1453 11.4604 26.2683 11.3054 26.4233C11.1504 26.5783 11.0274 26.7624 10.9435 26.9649C10.8596 27.1675 10.8164 27.3846 10.8164 27.6039Z" fill="#591DDD"/>
</svg>
