<svg width="41" height="41" viewBox="0 0 41 41" fill="none" xmlns="http://www.w3.org/2000/svg">
<rect x="0.980469" y="0.625" width="40" height="40" rx="8" fill="#FEFEFE"/>
<path d="M20.9805 23.125C20.9805 24.505 23.2195 25.625 25.9805 25.625C28.7415 25.625 30.9805 24.505 30.9805 23.125M12.9805 18.125C12.9805 19.505 15.2195 20.625 17.9805 20.625C19.1065 20.625 20.1455 20.439 20.9805 20.125M12.9805 21.625C12.9805 23.005 15.2195 24.125 17.9805 24.125C19.1065 24.125 20.1445 23.939 20.9805 23.625M25.9805 21.625C23.2195 21.625 20.9805 20.505 20.9805 19.125C20.9805 17.745 23.2195 16.625 25.9805 16.625C28.7415 16.625 30.9805 17.745 30.9805 19.125C30.9805 20.505 28.7415 21.625 25.9805 21.625Z" stroke="#591DDD" stroke-width="1.5" stroke-linecap="round" stroke-linejoin="round"/>
<path d="M12.9805 14.125V25.125C12.9805 26.505 15.2195 27.625 17.9805 27.625C19.1065 27.625 20.1445 27.439 20.9805 27.125M20.9805 27.125V19.125M20.9805 27.125C20.9805 28.505 23.2195 29.625 25.9805 29.625C28.7415 29.625 30.9805 28.505 30.9805 27.125V19.125M22.9805 17.125V14.125" stroke="#591DDD" stroke-width="1.5" stroke-linecap="round" stroke-linejoin="round"/>
<path d="M17.9805 16.625C15.2195 16.625 12.9805 15.505 12.9805 14.125C12.9805 12.745 15.2195 11.625 17.9805 11.625C20.7415 11.625 22.9805 12.745 22.9805 14.125C22.9805 15.505 20.7415 16.625 17.9805 16.625Z" stroke="#591DDD" stroke-width="1.5" stroke-linecap="round" stroke-linejoin="round"/>
</svg>
