<svg width="61" height="61" viewBox="0 0 61 61" fill="none" xmlns="http://www.w3.org/2000/svg">
<rect x="0.464844" y="0.125" width="60" height="60" rx="15" fill="#FEFEFE"/>
<g clip-path="url(#clip0_561_37686)">
<path d="M30.4648 18.125C26.3448 18.125 23.1048 21.255 22.6518 25.25C21.7805 25.3904 20.9633 25.7638 20.2868 26.3306C19.6103 26.8975 19.0996 27.6367 18.8088 28.47C16.3488 29.179 14.4648 31.373 14.4648 34.125C14.4648 37.449 17.1408 40.125 20.4648 40.125H40.4648C43.7888 40.125 46.4648 37.449 46.4648 34.125C46.4648 32.365 45.6098 30.789 44.3708 29.687C44.1388 26.173 41.3358 23.369 37.8088 23.187C36.6048 20.258 33.8428 18.125 30.4648 18.125ZM30.4648 20.125C33.2268 20.125 35.4348 21.895 36.2148 24.405L36.4348 25.125H37.4648C40.2198 25.125 42.4648 27.37 42.4648 30.125V30.625L42.8708 30.938C43.3608 31.3135 43.759 31.7956 44.0352 32.3478C44.3113 32.8999 44.4583 33.5077 44.4648 34.125C44.4648 36.401 42.7408 38.125 40.4648 38.125H20.4648C18.1888 38.125 16.4648 36.401 16.4648 34.125C16.4648 32.105 17.9148 30.537 19.7448 30.219L20.4018 30.094L20.5268 29.436C20.8268 28.089 22.0208 27.125 23.4648 27.125H24.4648V26.125C24.4648 22.755 27.0948 20.125 30.4648 20.125ZM30.4648 25.719L29.7448 26.406L25.7448 30.406L27.1848 31.846L29.4648 29.562V36.125H31.4648V29.562L33.7448 31.844L35.1848 30.404L31.1848 26.404L30.4648 25.719Z" fill="#591DDD"/>
</g>
<defs>
<clipPath id="clip0_561_37686">
<rect width="32" height="32" fill="white" transform="translate(14.4648 14.125)"/>
</clipPath>
</defs>
</svg>
