<svg width="41" height="41" viewBox="0 0 41 41" fill="none" xmlns="http://www.w3.org/2000/svg">
<rect x="0.464844" y="0.125" width="40" height="40" rx="8" fill="#FEFEFE"/>
<g clip-path="url(#clip0_561_37696)">
<path d="M20.4648 8.125C16.3448 8.125 13.1048 11.255 12.6518 15.25C11.7805 15.3904 10.9633 15.7638 10.2868 16.3306C9.61028 16.8975 9.09962 17.6367 8.80884 18.47C6.34884 19.179 4.46484 21.373 4.46484 24.125C4.46484 27.449 7.14084 30.125 10.4648 30.125H30.4648C33.7888 30.125 36.4648 27.449 36.4648 24.125C36.4648 22.365 35.6098 20.789 34.3708 19.687C34.1388 16.173 31.3358 13.369 27.8088 13.187C26.6048 10.258 23.8428 8.125 20.4648 8.125ZM20.4648 10.125C23.2268 10.125 25.4348 11.895 26.2148 14.405L26.4348 15.125H27.4648C30.2198 15.125 32.4648 17.37 32.4648 20.125V20.625L32.8708 20.938C33.3608 21.3135 33.759 21.7956 34.0352 22.3478C34.3113 22.8999 34.4583 23.5077 34.4648 24.125C34.4648 26.401 32.7408 28.125 30.4648 28.125H10.4648C8.18884 28.125 6.46484 26.401 6.46484 24.125C6.46484 22.105 7.91484 20.537 9.74484 20.219L10.4018 20.094L10.5268 19.436C10.8268 18.089 12.0208 17.125 13.4648 17.125H14.4648V16.125C14.4648 12.755 17.0948 10.125 20.4648 10.125ZM20.4648 15.719L19.7448 16.406L15.7448 20.406L17.1848 21.846L19.4648 19.562V26.125H21.4648V19.562L23.7448 21.844L25.1848 20.404L21.1848 16.404L20.4648 15.719Z" fill="#591DDD"/>
</g>
<defs>
<clipPath id="clip0_561_37696">
<rect width="32" height="32" fill="white" transform="translate(4.46484 4.125)"/>
</clipPath>
</defs>
</svg>
