<svg width="41" height="40" viewBox="0 0 41 40" fill="none" xmlns="http://www.w3.org/2000/svg">
<rect x="0.464844" width="40" height="40" rx="8" fill="#FEFEFE"/>
<path d="M19.4648 23.485L23.7078 19.243C24.5469 18.4038 25.1182 17.3347 25.3496 16.1708C25.5811 15.007 25.4622 13.8006 25.008 12.7043C24.5539 11.608 23.7848 10.671 22.7982 10.0118C21.8115 9.35254 20.6515 9.00067 19.4648 9.00067C18.2782 9.00067 17.1182 9.35254 16.1315 10.0118C15.1449 10.671 14.3758 11.608 13.9217 12.7043C13.4675 13.8006 13.3486 15.007 13.5801 16.1708C13.8115 17.3347 14.3828 18.4038 15.2218 19.243L19.4648 23.485ZM25.1218 20.657L19.4648 26.314L13.8078 20.657C12.6891 19.5381 11.9272 18.1127 11.6185 16.5608C11.3099 15.009 11.4683 13.4005 12.0739 11.9387C12.6794 10.4769 13.7047 9.22749 15.0203 8.34846C16.3359 7.46943 17.8826 7.00024 19.4648 7.00024C21.0471 7.00024 22.5938 7.46943 23.9094 8.34846C25.225 9.22749 26.2503 10.4769 26.8558 11.9387C27.4614 13.4005 27.6198 15.009 27.3112 16.5608C27.0025 18.1127 26.2406 19.5381 25.1218 20.657ZM12.4648 27H26.4648V29H12.4648V27Z" fill="#591DDD"/>
</svg>
