<svg width="40" height="40" viewBox="0 0 40 40" fill="none" xmlns="http://www.w3.org/2000/svg">
<rect width="40" height="40" rx="8" fill="#FEFEFE"/>
<g clip-path="url(#clip0_561_34549)">
<path d="M19.887 8L18.382 10.637C16.3559 11.0921 14.5322 12.1926 13.1851 13.773C11.8381 15.3534 11.0404 17.3284 10.912 19.401H13.322C13.4639 17.7059 14.2008 16.1156 15.4022 14.9115C16.6037 13.7073 18.1922 12.9668 19.887 12.821V10.425V8ZM21.1 10.411V12.821C22.7928 12.9658 24.3799 13.704 25.5812 14.9055C26.7825 16.1069 27.5205 17.6942 27.665 19.387H32.5L29.863 17.883C29.4085 15.8565 28.3085 14.0322 26.7282 12.6846C25.1479 11.337 23.1729 10.5398 21.1 10.411ZM20.487 13.701L19.741 18.256L21.233 19.254L22.231 20.746L26.786 19.986L22.231 19.241L24.202 16.284L21.246 18.255L20.487 13.701ZM21.233 19.254L16.784 16.284L19.754 20.733L24.202 23.703L21.233 19.254ZM19.754 20.733L18.755 19.241L14.201 20L18.755 20.746L16.785 23.703L19.728 21.732L20.487 26.286L21.246 21.732L19.754 20.733ZM20.487 19.467C20.767 19.467 21.007 19.707 21.007 19.987C21.007 20.0898 20.9765 20.1904 20.9194 20.2759C20.8622 20.3614 20.781 20.4281 20.686 20.4674C20.591 20.5068 20.4864 20.5171 20.3856 20.497C20.2847 20.4769 20.192 20.4274 20.1193 20.3547C20.0466 20.282 19.9971 20.1893 19.977 20.0884C19.9569 19.9876 19.9672 19.883 20.0066 19.788C20.0459 19.693 20.1126 19.6118 20.1981 19.5546C20.2836 19.4975 20.3842 19.467 20.487 19.467ZM8.5 20.6L11.138 22.104C11.5927 24.1303 12.6928 25.9543 14.2731 27.3018C15.8533 28.6492 17.8283 29.4473 19.901 29.576V27.165C18.2057 27.0232 16.6152 26.2863 15.4109 25.0846C14.2067 23.8829 13.4664 22.294 13.321 20.599H10.925L8.5 20.6ZM27.665 20.6C27.5203 22.2926 26.7821 23.8797 25.5809 25.0809C24.3797 26.2821 22.7926 27.0203 21.1 27.165V32L22.604 29.363C24.6305 28.9083 26.4546 27.808 27.8021 26.2275C29.1495 24.6471 29.9475 22.6719 30.076 20.599L27.665 20.6Z" fill="#591DDD"/>
</g>
<defs>
<clipPath id="clip0_561_34549">
<rect width="24" height="24" fill="white" transform="translate(8.5 8)"/>
</clipPath>
</defs>
</svg>
