<svg width="60" height="60" viewBox="0 0 60 60" fill="none" xmlns="http://www.w3.org/2000/svg">
<rect width="60" height="60" rx="8" fill="#FEFEFE"/>
<g clip-path="url(#clip0_596_17902)">
<path d="M28.6316 12L26.4995 15.7357C23.6291 16.3805 21.0456 17.9395 19.1373 20.1784C17.2289 22.4173 16.0989 25.2152 15.917 28.1514H19.3312C19.5322 25.75 20.5761 23.4972 22.2781 21.7912C23.9802 20.0853 26.2307 19.0363 28.6316 18.8298V15.4354V12ZM30.35 15.4156V18.8298C32.7481 19.0348 34.9966 20.0807 36.6984 21.7828C38.4001 23.4848 39.4457 25.7335 39.6504 28.1316H46.5L42.7642 26.0009C42.1204 23.13 40.562 20.5457 38.3233 18.6365C36.0846 16.7274 33.2866 15.598 30.35 15.4156ZM29.4816 20.0764L28.4247 26.5293L30.5384 27.9432L31.9522 30.0568L38.4052 28.9802L31.9522 27.9247L34.7445 23.7357L30.5568 26.5279L29.4816 20.0764ZM30.5384 27.9432L24.2357 23.7357L28.4432 30.0384L34.7445 34.2459L30.5384 27.9432ZM28.4432 30.0384L27.0279 27.9247L20.5764 29L27.0279 30.0568L24.2371 34.2459L28.4063 31.4537L29.4816 37.9052L30.5568 31.4537L28.4432 30.0384ZM29.4816 28.2449C29.8783 28.2449 30.2183 28.5849 30.2183 28.9816C30.2183 29.1273 30.175 29.2697 30.0941 29.3909C30.0132 29.512 29.8981 29.6064 29.7635 29.6622C29.6289 29.7179 29.4808 29.7325 29.3379 29.7041C29.195 29.6757 29.0637 29.6055 28.9607 29.5025C28.8577 29.3995 28.7875 29.2682 28.7591 29.1253C28.7306 28.9824 28.7452 28.8343 28.801 28.6997C28.8567 28.5651 28.9512 28.45 29.0723 28.3691C29.1935 28.2881 29.3359 28.2449 29.4816 28.2449ZM12.5 29.85L16.2372 31.9807C16.8813 34.8513 18.4398 37.4353 20.6785 39.3442C22.9172 41.2531 25.715 42.3837 28.6514 42.566V39.1504C26.2497 38.9496 23.9965 37.9056 22.2905 36.2032C20.5845 34.5008 19.5357 32.2498 19.3298 29.8486H15.9354L12.5 29.85ZM39.6504 29.85C39.4454 32.2479 38.3997 34.4962 36.6979 36.1979C34.9962 37.8997 32.7479 38.9454 30.35 39.1504V46L32.4807 42.2642C35.3515 41.6201 37.9357 40.0613 39.8446 37.8223C41.7535 35.5834 42.884 32.7852 43.066 29.8486L39.6504 29.85Z" fill="#591DDD"/>
</g>
<defs>
<clipPath id="clip0_596_17902">
<rect width="34" height="34" fill="white" transform="translate(12.5 12)"/>
</clipPath>
</defs>
</svg>
