<svg width="60" height="60" viewBox="0 0 60 60" fill="none" xmlns="http://www.w3.org/2000/svg">
<rect width="60" height="60" rx="15" fill="#FEFEFE"/>
<g clip-path="url(#clip0_561_40615)">
<path d="M20.625 42C19.9288 42 19.2611 41.7234 18.7688 41.2312C18.2766 40.7389 18 40.0712 18 39.375V20.625C18 19.176 19.176 18 20.625 18H33.375C34.824 18 36 19.176 36 20.625V39.375C36 39.5025 35.991 39.627 35.973 39.75H39.375C39.4745 39.75 39.5698 39.7105 39.6402 39.6402C39.7105 39.5698 39.75 39.4745 39.75 39.375V30.4275C39.75 30.3658 39.7349 30.3051 39.7058 30.2506C39.6768 30.1962 39.6348 30.1498 39.5835 30.1155L38.001 29.061C37.8781 28.9791 37.7725 28.8737 37.6903 28.751C37.6081 28.6282 37.5509 28.4905 37.5219 28.3456C37.4929 28.2008 37.4928 28.0516 37.5215 27.9067C37.5501 27.7618 37.6071 27.6239 37.689 27.501C37.7709 27.3781 37.8763 27.2725 37.999 27.1903C38.1218 27.1081 38.2595 27.0509 38.4044 27.0219C38.5492 26.9929 38.6984 26.9928 38.8433 27.0215C38.9882 27.0501 39.1261 27.1071 39.249 27.189L40.8315 28.2435C41.562 28.731 42 29.55 42 30.4275V39.375C42 40.0712 41.7234 40.7389 41.2312 41.2312C40.7389 41.7234 40.0712 42 39.375 42H34.125C34.0252 41.9999 33.9259 41.9868 33.8295 41.961C33.681 41.9865 33.5295 42 33.375 42H28.875C28.5766 42 28.2905 41.8815 28.0795 41.6705C27.8685 41.4595 27.75 41.1734 27.75 40.875V39H26.25V40.875C26.25 41.1734 26.1315 41.4595 25.9205 41.6705C25.7095 41.8815 25.4234 42 25.125 42H20.625ZM20.25 39.375C20.25 39.582 20.418 39.75 20.625 39.75H24V37.875C24 37.5766 24.1185 37.2905 24.3295 37.0795C24.5405 36.8685 24.8266 36.75 25.125 36.75H28.875C29.1734 36.75 29.4595 36.8685 29.6705 37.0795C29.8815 37.2905 30 37.5766 30 37.875V39.75H33.375C33.4745 39.75 33.5698 39.7105 33.6402 39.6402C33.7105 39.5698 33.75 39.4745 33.75 39.375V20.625C33.75 20.5255 33.7105 20.4302 33.6402 20.3598C33.5698 20.2895 33.4745 20.25 33.375 20.25H20.625C20.5255 20.25 20.4302 20.2895 20.3598 20.3598C20.2895 20.4302 20.25 20.5255 20.25 20.625V39.375ZM23.625 27H24.375C24.6734 27 24.9595 27.1185 25.1705 27.3295C25.3815 27.5405 25.5 27.8266 25.5 28.125C25.5 28.4234 25.3815 28.7095 25.1705 28.9205C24.9595 29.1315 24.6734 29.25 24.375 29.25H23.625C23.3266 29.25 23.0405 29.1315 22.8295 28.9205C22.6185 28.7095 22.5 28.4234 22.5 28.125C22.5 27.8266 22.6185 27.5405 22.8295 27.3295C23.0405 27.1185 23.3266 27 23.625 27ZM22.5 23.625C22.5 23.3266 22.6185 23.0405 22.8295 22.8295C23.0405 22.6185 23.3266 22.5 23.625 22.5H24.375C24.6734 22.5 24.9595 22.6185 25.1705 22.8295C25.3815 23.0405 25.5 23.3266 25.5 23.625C25.5 23.9234 25.3815 24.2095 25.1705 24.4205C24.9595 24.6315 24.6734 24.75 24.375 24.75H23.625C23.3266 24.75 23.0405 24.6315 22.8295 24.4205C22.6185 24.2095 22.5 23.9234 22.5 23.625ZM28.5 28.125C28.5 27.8266 28.6185 27.5405 28.8295 27.3295C29.0405 27.1185 29.3266 27 29.625 27H30.375C30.6734 27 30.9595 27.1185 31.1705 27.3295C31.3815 27.5405 31.5 27.8266 31.5 28.125C31.5 28.4234 31.3815 28.7095 31.1705 28.9205C30.9595 29.1315 30.6734 29.25 30.375 29.25H29.625C29.3266 29.25 29.0405 29.1315 28.8295 28.9205C28.6185 28.7095 28.5 28.4234 28.5 28.125ZM29.625 22.5H30.375C30.6734 22.5 30.9595 22.6185 31.1705 22.8295C31.3815 23.0405 31.5 23.3266 31.5 23.625C31.5 23.9234 31.3815 24.2095 31.1705 24.4205C30.9595 24.6315 30.6734 24.75 30.375 24.75H29.625C29.3266 24.75 29.0405 24.6315 28.8295 24.4205C28.6185 24.2095 28.5 23.9234 28.5 23.625C28.5 23.3266 28.6185 23.0405 28.8295 22.8295C29.0405 22.6185 29.3266 22.5 29.625 22.5ZM22.5 32.625C22.5 32.3266 22.6185 32.0405 22.8295 31.8295C23.0405 31.6185 23.3266 31.5 23.625 31.5H24.375C24.6734 31.5 24.9595 31.6185 25.1705 31.8295C25.3815 32.0405 25.5 32.3266 25.5 32.625C25.5 32.9234 25.3815 33.2095 25.1705 33.4205C24.9595 33.6315 24.6734 33.75 24.375 33.75H23.625C23.3266 33.75 23.0405 33.6315 22.8295 33.4205C22.6185 33.2095 22.5 32.9234 22.5 32.625ZM29.625 31.5H30.375C30.6734 31.5 30.9595 31.6185 31.1705 31.8295C31.3815 32.0405 31.5 32.3266 31.5 32.625C31.5 32.9234 31.3815 33.2095 31.1705 33.4205C30.9595 33.6315 30.6734 33.75 30.375 33.75H29.625C29.3266 33.75 29.0405 33.6315 28.8295 33.4205C28.6185 33.2095 28.5 32.9234 28.5 32.625C28.5 32.3266 28.6185 32.0405 28.8295 31.8295C29.0405 31.6185 29.3266 31.5 29.625 31.5Z" fill="#591DDD"/>
</g>
<defs>
<clipPath id="clip0_561_40615">
<rect width="24" height="24" fill="white" transform="translate(18 18)"/>
</clipPath>
</defs>
</svg>
