<svg width="60" height="60" viewBox="0 0 60 60" fill="none" xmlns="http://www.w3.org/2000/svg">
<rect width="60" height="60" rx="15" fill="#FEFEFE"/>
<path d="M34.5569 30.906L34.1019 31.359C34.1019 31.359 33.0189 32.435 30.0639 29.497C27.1089 26.559 28.1919 25.483 28.1919 25.483L28.4779 25.197C29.1849 24.495 29.2519 23.367 28.6349 22.543L27.3749 20.86C26.6109 19.84 25.1359 19.705 24.2609 20.575L22.6909 22.135C22.2579 22.567 21.9679 23.125 22.0029 23.745C22.0929 25.332 22.8109 28.745 26.8149 32.727C31.0619 36.949 35.0469 37.117 36.6759 36.965C37.1919 36.917 37.6399 36.655 38.0009 36.295L39.4209 34.883C40.3809 33.93 40.1109 32.295 38.8829 31.628L36.9729 30.589C36.1669 30.151 35.1869 30.28 34.5569 30.906Z" fill="#591DDD"/>
</svg>
