<svg width="40" height="40" viewBox="0 0 40 40" fill="none" xmlns="http://www.w3.org/2000/svg">
<rect width="40" height="40" rx="8" fill="#FEFEFE"/>
<path d="M23.5569 20.906L23.1019 21.359C23.1019 21.359 22.0189 22.435 19.0639 19.497C16.1089 16.559 17.1919 15.483 17.1919 15.483L17.4779 15.197C18.1849 14.495 18.2519 13.367 17.6349 12.543L16.3749 10.86C15.6109 9.83998 14.1359 9.70498 13.2609 10.575L11.6909 12.135C11.2579 12.567 10.9679 13.125 11.0029 13.745C11.0929 15.332 11.8109 18.745 15.8149 22.727C20.0619 26.949 24.0469 27.117 25.6759 26.965C26.1919 26.917 26.6399 26.655 27.0009 26.295L28.4209 24.883C29.3809 23.93 29.1109 22.295 27.8829 21.628L25.9729 20.589C25.1669 20.151 24.1869 20.28 23.5569 20.906Z" fill="#591DDD"/>
</svg>
