<svg width="132" height="133" viewBox="0 0 132 133" fill="none" xmlns="http://www.w3.org/2000/svg">
<g filter="url(#filter0_d_561_40440)">
<rect x="36" y="32.5" width="60" height="60" rx="15" fill="white"/>
</g>
<path d="M69.754 60.5C70.72 60.5 71.504 61.284 71.504 62.25V68.999C71.504 70.458 70.9244 71.8572 69.8928 72.8888C68.8612 73.9204 67.462 74.5 66.003 74.5C64.544 74.5 63.1448 73.9204 62.1132 72.8888C61.0816 71.8572 60.502 70.458 60.502 68.999V62.25C60.502 61.284 61.285 60.5 62.252 60.5H69.754ZM55.75 60.5L60.132 60.498C59.7716 60.9322 59.5547 61.4674 59.511 62.03L59.501 62.25V68.999C59.501 70.132 59.792 71.198 60.301 72.126C59.6159 72.4249 58.8672 72.5485 58.1224 72.4856C57.3776 72.4228 56.6601 72.1754 56.0349 71.7658C55.4096 71.3563 54.8961 70.7975 54.5409 70.1399C54.1856 69.4822 53.9997 68.7465 54 67.999V62.25C54.0003 61.7858 54.1849 61.3407 54.5132 61.0125C54.8416 60.6843 55.2858 60.5 55.75 60.5ZM71.874 60.498L76.25 60.5C77.216 60.5 78 61.284 78 62.25V68C78.0003 68.7472 77.8146 69.4826 77.4595 70.1401C77.1045 70.7975 76.5914 71.3562 75.9664 71.7657C75.3415 72.1752 74.6244 72.4227 73.8799 72.4857C73.1354 72.5488 72.3869 72.4255 71.702 72.127L71.758 72.025C72.187 71.212 72.448 70.296 72.496 69.325L72.504 68.999V62.25C72.504 61.584 72.267 60.974 71.874 60.498ZM66 52.5C66.4596 52.5 66.9148 52.5905 67.3394 52.7664C67.764 52.9423 68.1499 53.2001 68.4749 53.5251C68.7999 53.8501 69.0577 54.236 69.2336 54.6606C69.4095 55.0852 69.5 55.5404 69.5 56C69.5 56.4596 69.4095 56.9148 69.2336 57.3394C69.0577 57.764 68.7999 58.1499 68.4749 58.4749C68.1499 58.7999 67.764 59.0577 67.3394 59.2336C66.9148 59.4095 66.4596 59.5 66 59.5C65.0717 59.5 64.1815 59.1313 63.5251 58.4749C62.8687 57.8185 62.5 56.9283 62.5 56C62.5 55.0717 62.8687 54.1815 63.5251 53.5251C64.1815 52.8687 65.0717 52.5 66 52.5ZM74.003 53.5C74.397 53.5 74.7871 53.5776 75.1511 53.7284C75.515 53.8791 75.8457 54.1001 76.1243 54.3787C76.4029 54.6573 76.6239 54.988 76.7746 55.3519C76.9254 55.7159 77.003 56.106 77.003 56.5C77.003 56.894 76.9254 57.2841 76.7746 57.6481C76.6239 58.012 76.4029 58.3427 76.1243 58.6213C75.8457 58.8999 75.515 59.1209 75.1511 59.2716C74.7871 59.4224 74.397 59.5 74.003 59.5C73.2074 59.5 72.4443 59.1839 71.8817 58.6213C71.3191 58.0587 71.003 57.2956 71.003 56.5C71.003 55.7044 71.3191 54.9413 71.8817 54.3787C72.4443 53.8161 73.2074 53.5 74.003 53.5ZM57.997 53.5C58.391 53.5 58.7811 53.5776 59.1451 53.7284C59.509 53.8791 59.8397 54.1001 60.1183 54.3787C60.3969 54.6573 60.6179 54.988 60.7686 55.3519C60.9194 55.7159 60.997 56.106 60.997 56.5C60.997 56.894 60.9194 57.2841 60.7686 57.6481C60.6179 58.012 60.3969 58.3427 60.1183 58.6213C59.8397 58.8999 59.509 59.1209 59.1451 59.2716C58.7811 59.4224 58.391 59.5 57.997 59.5C57.2014 59.5 56.4383 59.1839 55.8757 58.6213C55.3131 58.0587 54.997 57.2956 54.997 56.5C54.997 55.7044 55.3131 54.9413 55.8757 54.3787C56.4383 53.8161 57.2014 53.5 57.997 53.5Z" fill="#343434"/>
<defs>
<filter id="filter0_d_561_40440" x="0" y="0.5" width="132" height="132" filterUnits="userSpaceOnUse" color-interpolation-filters="sRGB">
<feFlood flood-opacity="0" result="BackgroundImageFix"/>
<feColorMatrix in="SourceAlpha" type="matrix" values="0 0 0 0 0 0 0 0 0 0 0 0 0 0 0 0 0 0 127 0" result="hardAlpha"/>
<feOffset dy="4"/>
<feGaussianBlur stdDeviation="18"/>
<feComposite in2="hardAlpha" operator="out"/>
<feColorMatrix type="matrix" values="0 0 0 0 0.34902 0 0 0 0 0.113725 0 0 0 0 0.866667 0 0 0 0.4 0"/>
<feBlend mode="normal" in2="BackgroundImageFix" result="effect1_dropShadow_561_40440"/>
<feBlend mode="normal" in="SourceGraphic" in2="effect1_dropShadow_561_40440" result="shape"/>
</filter>
</defs>
</svg>
