<svg width="60" height="61" viewBox="0 0 60 61" fill="none" xmlns="http://www.w3.org/2000/svg">
<rect y="0.5" width="60" height="60" rx="15" fill="#FEFEFE"/>
<path d="M33.754 28.5C34.72 28.5 35.504 29.284 35.504 30.25V36.999C35.504 38.458 34.9244 39.8572 33.8928 40.8888C32.8612 41.9204 31.462 42.5 30.003 42.5C28.544 42.5 27.1448 41.9204 26.1132 40.8888C25.0816 39.8572 24.502 38.458 24.502 36.999V30.25C24.502 29.284 25.285 28.5 26.252 28.5H33.754ZM19.75 28.5L24.132 28.498C23.7716 28.9322 23.5547 29.4674 23.511 30.03L23.501 30.25V36.999C23.501 38.132 23.792 39.198 24.301 40.126C23.6159 40.4249 22.8672 40.5485 22.1224 40.4856C21.3776 40.4228 20.6601 40.1754 20.0349 39.7658C19.4096 39.3563 18.8961 38.7975 18.5409 38.1399C18.1856 37.4822 17.9997 36.7465 18 35.999V30.25C18.0003 29.7858 18.1849 29.3407 18.5132 29.0125C18.8416 28.6843 19.2858 28.5 19.75 28.5ZM35.874 28.498L40.25 28.5C41.216 28.5 42 29.284 42 30.25V36C42.0003 36.7472 41.8146 37.4826 41.4595 38.1401C41.1045 38.7975 40.5914 39.3562 39.9664 39.7657C39.3415 40.1752 38.6244 40.4227 37.8799 40.4857C37.1354 40.5488 36.3869 40.4255 35.702 40.127L35.758 40.025C36.187 39.212 36.448 38.296 36.496 37.325L36.504 36.999V30.25C36.504 29.584 36.267 28.974 35.874 28.498ZM30 20.5C30.4596 20.5 30.9148 20.5905 31.3394 20.7664C31.764 20.9423 32.1499 21.2001 32.4749 21.5251C32.7999 21.8501 33.0577 22.236 33.2336 22.6606C33.4095 23.0852 33.5 23.5404 33.5 24C33.5 24.4596 33.4095 24.9148 33.2336 25.3394C33.0577 25.764 32.7999 26.1499 32.4749 26.4749C32.1499 26.7999 31.764 27.0577 31.3394 27.2336C30.9148 27.4095 30.4596 27.5 30 27.5C29.0717 27.5 28.1815 27.1313 27.5251 26.4749C26.8687 25.8185 26.5 24.9283 26.5 24C26.5 23.0717 26.8687 22.1815 27.5251 21.5251C28.1815 20.8687 29.0717 20.5 30 20.5ZM38.003 21.5C38.397 21.5 38.7871 21.5776 39.1511 21.7284C39.515 21.8791 39.8457 22.1001 40.1243 22.3787C40.4029 22.6573 40.6239 22.988 40.7746 23.3519C40.9254 23.7159 41.003 24.106 41.003 24.5C41.003 24.894 40.9254 25.2841 40.7746 25.6481C40.6239 26.012 40.4029 26.3427 40.1243 26.6213C39.8457 26.8999 39.515 27.1209 39.1511 27.2716C38.7871 27.4224 38.397 27.5 38.003 27.5C37.2074 27.5 36.4443 27.1839 35.8817 26.6213C35.3191 26.0587 35.003 25.2956 35.003 24.5C35.003 23.7044 35.3191 22.9413 35.8817 22.3787C36.4443 21.8161 37.2074 21.5 38.003 21.5ZM21.997 21.5C22.391 21.5 22.7811 21.5776 23.1451 21.7284C23.509 21.8791 23.8397 22.1001 24.1183 22.3787C24.3969 22.6573 24.6179 22.988 24.7686 23.3519C24.9194 23.7159 24.997 24.106 24.997 24.5C24.997 24.894 24.9194 25.2841 24.7686 25.6481C24.6179 26.012 24.3969 26.3427 24.1183 26.6213C23.8397 26.8999 23.509 27.1209 23.1451 27.2716C22.7811 27.4224 22.391 27.5 21.997 27.5C21.2014 27.5 20.4383 27.1839 19.8757 26.6213C19.3131 26.0587 18.997 25.2956 18.997 24.5C18.997 23.7044 19.3131 22.9413 19.8757 22.3787C20.4383 21.8161 21.2014 21.5 21.997 21.5Z" fill="#591DDD"/>
</svg>
