<svg width="112" height="113" viewBox="0 0 112 113" fill="none" xmlns="http://www.w3.org/2000/svg">
<g filter="url(#filter0_d_561_40265)">
<rect x="36" y="32.5" width="40" height="40" rx="8" fill="#591DDD"/>
</g>
<path d="M59.754 49.5C60.72 49.5 61.504 50.284 61.504 51.25V57.999C61.504 59.458 60.9244 60.8572 59.8928 61.8888C58.8612 62.9204 57.462 63.5 56.003 63.5C54.544 63.5 53.1448 62.9204 52.1132 61.8888C51.0816 60.8572 50.502 59.458 50.502 57.999V51.25C50.502 50.284 51.285 49.5 52.252 49.5H59.754ZM45.75 49.5L50.132 49.498C49.7716 49.9322 49.5547 50.4674 49.511 51.03L49.501 51.25V57.999C49.501 59.132 49.792 60.198 50.301 61.126C49.6159 61.4249 48.8672 61.5485 48.1224 61.4856C47.3776 61.4228 46.6601 61.1754 46.0349 60.7658C45.4096 60.3563 44.8961 59.7975 44.5409 59.1399C44.1856 58.4822 43.9997 57.7465 44 56.999V51.25C44.0003 50.7858 44.1849 50.3407 44.5132 50.0125C44.8416 49.6843 45.2858 49.5 45.75 49.5ZM61.874 49.498L66.25 49.5C67.216 49.5 68 50.284 68 51.25V57C68.0003 57.7472 67.8146 58.4826 67.4595 59.1401C67.1045 59.7975 66.5914 60.3562 65.9664 60.7657C65.3415 61.1752 64.6244 61.4227 63.8799 61.4857C63.1354 61.5488 62.3869 61.4255 61.702 61.127L61.758 61.025C62.187 60.212 62.448 59.296 62.496 58.325L62.504 57.999V51.25C62.504 50.584 62.267 49.974 61.874 49.498ZM56 41.5C56.4596 41.5 56.9148 41.5905 57.3394 41.7664C57.764 41.9423 58.1499 42.2001 58.4749 42.5251C58.7999 42.8501 59.0577 43.236 59.2336 43.6606C59.4095 44.0852 59.5 44.5404 59.5 45C59.5 45.4596 59.4095 45.9148 59.2336 46.3394C59.0577 46.764 58.7999 47.1499 58.4749 47.4749C58.1499 47.7999 57.764 48.0577 57.3394 48.2336C56.9148 48.4095 56.4596 48.5 56 48.5C55.0717 48.5 54.1815 48.1313 53.5251 47.4749C52.8687 46.8185 52.5 45.9283 52.5 45C52.5 44.0717 52.8687 43.1815 53.5251 42.5251C54.1815 41.8687 55.0717 41.5 56 41.5ZM64.003 42.5C64.397 42.5 64.7871 42.5776 65.1511 42.7284C65.515 42.8791 65.8457 43.1001 66.1243 43.3787C66.4029 43.6573 66.6239 43.988 66.7746 44.3519C66.9254 44.7159 67.003 45.106 67.003 45.5C67.003 45.894 66.9254 46.2841 66.7746 46.6481C66.6239 47.012 66.4029 47.3427 66.1243 47.6213C65.8457 47.8999 65.515 48.1209 65.1511 48.2716C64.7871 48.4224 64.397 48.5 64.003 48.5C63.2074 48.5 62.4443 48.1839 61.8817 47.6213C61.3191 47.0587 61.003 46.2956 61.003 45.5C61.003 44.7044 61.3191 43.9413 61.8817 43.3787C62.4443 42.8161 63.2074 42.5 64.003 42.5ZM47.997 42.5C48.391 42.5 48.7811 42.5776 49.1451 42.7284C49.509 42.8791 49.8397 43.1001 50.1183 43.3787C50.3969 43.6573 50.6179 43.988 50.7686 44.3519C50.9194 44.7159 50.997 45.106 50.997 45.5C50.997 45.894 50.9194 46.2841 50.7686 46.6481C50.6179 47.012 50.3969 47.3427 50.1183 47.6213C49.8397 47.8999 49.509 48.1209 49.1451 48.2716C48.7811 48.4224 48.391 48.5 47.997 48.5C47.2014 48.5 46.4383 48.1839 45.8757 47.6213C45.3131 47.0587 44.997 46.2956 44.997 45.5C44.997 44.7044 45.3131 43.9413 45.8757 43.3787C46.4383 42.8161 47.2014 42.5 47.997 42.5Z" fill="#343434"/>
<defs>
<filter id="filter0_d_561_40265" x="0" y="0.5" width="112" height="112" filterUnits="userSpaceOnUse" color-interpolation-filters="sRGB">
<feFlood flood-opacity="0" result="BackgroundImageFix"/>
<feColorMatrix in="SourceAlpha" type="matrix" values="0 0 0 0 0 0 0 0 0 0 0 0 0 0 0 0 0 0 127 0" result="hardAlpha"/>
<feOffset dy="4"/>
<feGaussianBlur stdDeviation="18"/>
<feComposite in2="hardAlpha" operator="out"/>
<feColorMatrix type="matrix" values="0 0 0 0 0.34902 0 0 0 0 0.113725 0 0 0 0 0.866667 0 0 0 0.75 0"/>
<feBlend mode="normal" in2="BackgroundImageFix" result="effect1_dropShadow_561_40265"/>
<feBlend mode="normal" in="SourceGraphic" in2="effect1_dropShadow_561_40265" result="shape"/>
</filter>
</defs>
</svg>
