<svg width="112" height="113" viewBox="0 0 112 113" fill="none" xmlns="http://www.w3.org/2000/svg">
<g filter="url(#filter0_d_561_40244)">
<rect x="36" y="32.5" width="40" height="40" rx="8" fill="#FEFEFE"/>
</g>
<path d="M54.6055 46.1992C54.0555 46.1992 53.5845 46.0032 53.1925 45.6112C52.8005 45.2192 52.6048 44.7486 52.6055 44.1992C52.6055 43.6492 52.8015 43.1782 53.1935 42.7862C53.5855 42.3942 54.0561 42.1986 54.6055 42.1992C55.1555 42.1992 55.6265 42.3952 56.0185 42.7872C56.4105 43.1792 56.6061 43.6499 56.6055 44.1992C56.6055 44.7492 56.4095 45.2202 56.0175 45.6122C55.6255 46.0042 55.1548 46.1999 54.6055 46.1992ZM53.1055 60.1992V48.1992H56.1055V60.1992H53.1055Z" fill="#343434"/>
<defs>
<filter id="filter0_d_561_40244" x="0" y="0.5" width="112" height="112" filterUnits="userSpaceOnUse" color-interpolation-filters="sRGB">
<feFlood flood-opacity="0" result="BackgroundImageFix"/>
<feColorMatrix in="SourceAlpha" type="matrix" values="0 0 0 0 0 0 0 0 0 0 0 0 0 0 0 0 0 0 127 0" result="hardAlpha"/>
<feOffset dy="4"/>
<feGaussianBlur stdDeviation="18"/>
<feComposite in2="hardAlpha" operator="out"/>
<feColorMatrix type="matrix" values="0 0 0 0 0.34902 0 0 0 0 0.113725 0 0 0 0 0.866667 0 0 0 0.42 0"/>
<feBlend mode="normal" in2="BackgroundImageFix" result="effect1_dropShadow_561_40244"/>
<feBlend mode="normal" in="SourceGraphic" in2="effect1_dropShadow_561_40244" result="shape"/>
</filter>
</defs>
</svg>
