<svg width="60" height="60" viewBox="0 0 60 60" fill="none" xmlns="http://www.w3.org/2000/svg">
<rect width="60" height="60" rx="15" fill="#FEFEFE"/>
<path d="M24.5 30C25.4797 29.9999 26.4378 30.2877 27.2553 30.8275C28.0729 31.3673 28.7138 32.1354 29.0986 33.0364C29.4833 33.9373 29.5949 34.9315 29.4195 35.8953C29.2441 36.8592 28.7893 37.7502 28.1118 38.4579C27.4343 39.1655 26.5638 39.6585 25.6085 39.8756C24.6532 40.0928 23.6552 40.0245 22.7383 39.6793C21.8215 39.334 21.0263 38.7271 20.4515 37.9338C19.8766 37.1405 19.5475 36.1958 19.505 35.217L19.5 35L19.505 34.783C19.5609 33.4958 20.1116 32.2798 21.0422 31.3887C21.9728 30.4975 23.2115 30.0001 24.5 30ZM35.5 30C36.4797 29.9999 37.4378 30.2877 38.2553 30.8275C39.0729 31.3673 39.7138 32.1354 40.0986 33.0364C40.4833 33.9373 40.5949 34.9315 40.4195 35.8953C40.2441 36.8592 39.7893 37.7502 39.1118 38.4579C38.4343 39.1655 37.5638 39.6585 36.6085 39.8756C35.6532 40.0928 34.6552 40.0245 33.7383 39.6793C32.8215 39.334 32.0263 38.7271 31.4515 37.9338C30.8766 37.1405 30.5475 36.1958 30.505 35.217L30.5 35L30.505 34.783C30.5609 33.4958 31.1116 32.2798 32.0422 31.3887C32.9728 30.4975 34.2115 30.0001 35.5 30ZM30 20C30.9797 19.9999 31.9378 20.2877 32.7553 20.8275C33.5729 21.3673 34.2138 22.1354 34.5986 23.0364C34.9833 23.9373 35.0949 24.9315 34.9195 25.8953C34.7441 26.8592 34.2893 27.7502 33.6118 28.4579C32.9343 29.1655 32.0638 29.6585 31.1085 29.8756C30.1532 30.0928 29.1552 30.0245 28.2383 29.6793C27.3215 29.334 26.5263 28.7271 25.9515 27.9338C25.3766 27.1405 25.0475 26.1958 25.005 25.217L25 25L25.005 24.783C25.0609 23.4958 25.6116 22.2798 26.5422 21.3887C27.4728 20.4975 28.7115 20.0001 30 20Z" fill="#591DDD"/>
</svg>
