<svg width="61" height="60" viewBox="0 0 61 60" fill="none" xmlns="http://www.w3.org/2000/svg">
<rect x="0.464844" width="60" height="60" rx="15" fill="#FEFEFE"/>
<path d="M30.4648 36.485L34.7078 32.243C35.5469 31.4038 36.1182 30.3347 36.3496 29.1708C36.5811 28.007 36.4622 26.8006 36.008 25.7043C35.5539 24.608 34.7848 23.671 33.7982 23.0118C32.8115 22.3525 31.6515 22.0007 30.4648 22.0007C29.2782 22.0007 28.1182 22.3525 27.1315 23.0118C26.1449 23.671 25.3758 24.608 24.9217 25.7043C24.4675 26.8006 24.3486 28.007 24.5801 29.1708C24.8115 30.3347 25.3828 31.4038 26.2218 32.243L30.4648 36.485ZM36.1218 33.657L30.4648 39.314L24.8078 33.657C23.6891 32.5381 22.9272 31.1127 22.6185 29.5608C22.3099 28.009 22.4683 26.4005 23.0739 24.9387C23.6794 23.4769 24.7047 22.2275 26.0203 21.3485C27.3359 20.4694 28.8826 20.0002 30.4648 20.0002C32.0471 20.0002 33.5938 20.4694 34.9094 21.3485C36.225 22.2275 37.2503 23.4769 37.8558 24.9387C38.4614 26.4005 38.6198 28.009 38.3112 29.5608C38.0025 31.1127 37.2406 32.5381 36.1218 33.657ZM23.4648 40H37.4648V42H23.4648V40Z" fill="#591DDD"/>
</svg>
