<svg width="40" height="40" viewBox="0 0 40 40" fill="none" xmlns="http://www.w3.org/2000/svg">
<rect width="40" height="40" rx="8" fill="#FEFEFE"/>
<path d="M18.6055 13.6992C18.0555 13.6992 17.5845 13.5032 17.1925 13.1112C16.8005 12.7192 16.6048 12.2486 16.6055 11.6992C16.6055 11.1492 16.8015 10.6782 17.1935 10.2862C17.5855 9.89422 18.0561 9.69855 18.6055 9.69922C19.1555 9.69922 19.6265 9.89522 20.0185 10.2872C20.4105 10.6792 20.6061 11.1499 20.6055 11.6992C20.6055 12.2492 20.4095 12.7202 20.0175 13.1122C19.6255 13.5042 19.1548 13.6999 18.6055 13.6992ZM17.1055 27.6992V15.6992H20.1055V27.6992H17.1055Z" fill="#591DDD" fill-opacity="0.866667"/>
</svg>
