<svg width="40" height="40" viewBox="0 0 40 40" fill="none" xmlns="http://www.w3.org/2000/svg">
<rect width="40" height="40" rx="8" fill="#FEFEFE"/>
<path d="M19.9987 11.666C19.1146 11.666 18.2668 12.0172 17.6417 12.6423C17.0166 13.2674 16.6654 14.1153 16.6654 14.9993C16.6654 15.8834 17.0166 16.7313 17.6417 17.3564C18.2668 17.9815 19.1146 18.3327 19.9987 18.3327C20.8828 18.3327 21.7306 17.9815 22.3557 17.3564C22.9808 16.7313 23.332 15.8834 23.332 14.9993C23.332 14.1153 22.9808 13.2674 22.3557 12.6423C21.7306 12.0172 20.8828 11.666 19.9987 11.666ZM24.1654 19.9993H15.832C15.169 19.9993 14.5331 20.2627 14.0643 20.7316C13.5954 21.2004 13.332 21.8363 13.332 22.4993C13.332 24.3593 14.097 25.8493 15.352 26.8577C16.587 27.8493 18.2437 28.3327 19.9987 28.3327C21.7537 28.3327 23.4104 27.8493 24.6454 26.8577C25.8987 25.8493 26.6654 24.3593 26.6654 22.4993C26.6654 21.8363 26.402 21.2004 25.9331 20.7316C25.4643 20.2627 24.8284 19.9993 24.1654 19.9993Z" fill="#591DDD"/>
</svg>
