<svg width="40" height="40" viewBox="0 0 40 40" fill="none" xmlns="http://www.w3.org/2000/svg">
<rect width="40" height="40" rx="8" fill="#FEFEFE"/>
<path d="M24.5312 15.6704V15.1699C24.5312 12.9166 21.1325 11.2168 16.625 11.2168C12.1175 11.2168 8.71875 12.9166 8.71875 15.1699V18.7637C8.71875 20.6405 11.0771 22.1319 14.4688 22.5784V23.0762C14.4688 25.3295 17.8675 27.0293 22.375 27.0293C26.8825 27.0293 30.2812 25.3295 30.2812 23.0762V19.4824C30.2812 17.6227 27.9974 16.1295 24.5312 15.6704ZM28.8438 19.4824C28.8438 20.6702 26.0775 21.998 22.375 21.998C22.0399 21.998 21.7075 21.9864 21.3795 21.9648C23.3175 21.2586 24.5312 20.1113 24.5312 18.7637V17.1231C27.2149 17.5229 28.8438 18.6082 28.8438 19.4824ZM14.4688 21.1221V18.9847C15.1837 19.0778 15.904 19.1241 16.625 19.123C17.346 19.1241 18.0663 19.0778 18.7812 18.9847V21.1221C18.0674 21.2275 17.3466 21.2801 16.625 21.2793C15.9034 21.2801 15.1826 21.2275 14.4688 21.1221ZM23.0938 17.4996V18.7637C23.0938 19.5175 21.9788 20.327 20.2188 20.8184V18.7188C21.3786 18.4375 22.3606 18.0189 23.0938 17.4996ZM16.625 12.6543C20.3275 12.6543 23.0938 13.9822 23.0938 15.1699C23.0938 16.3577 20.3275 17.6855 16.625 17.6855C12.9225 17.6855 10.1562 16.3577 10.1562 15.1699C10.1562 13.9822 12.9225 12.6543 16.625 12.6543ZM10.1562 18.7637V17.4996C10.8894 18.0189 11.8714 18.4375 13.0312 18.7188V20.8184C11.2712 20.327 10.1562 19.5175 10.1562 18.7637ZM15.9062 23.0762V22.7015C16.1425 22.7105 16.3815 22.7168 16.625 22.7168C16.9736 22.7168 17.3141 22.7051 17.6483 22.6854C18.0196 22.8183 18.3978 22.931 18.7812 23.0232V25.1309C17.0212 24.6395 15.9062 23.83 15.9062 23.0762ZM20.2188 25.4346V23.2918C20.9335 23.3879 21.6538 23.4359 22.375 23.4355C23.096 23.4366 23.8163 23.3903 24.5312 23.2972V25.4346C23.1014 25.6442 21.6486 25.6442 20.2188 25.4346ZM25.9688 25.1309V23.0312C27.1286 22.75 28.1106 22.3314 28.8438 21.8121V23.0762C28.8438 23.83 27.7288 24.6395 25.9688 25.1309Z" fill="#591DDD"/>
</svg>
