<svg width="40" height="40" viewBox="0 0 40 40" fill="none" xmlns="http://www.w3.org/2000/svg">
<rect width="40" height="40" rx="8" fill="#FEFEFE"/>
<g clip-path="url(#clip0_561_40687)">
<path d="M13.0362 20.6142C15.7111 15.8714 17.0485 13.5 19.1669 13.5C21.2844 13.5 22.6227 15.8714 25.2976 20.6142L25.6312 21.2055C27.8541 25.1472 28.9661 27.118 27.9614 28.559C26.9567 30 24.4707 30 19.5006 30H18.8332C13.8631 30 11.3771 30 10.3724 28.559C9.36772 27.118 10.4796 25.1472 12.7026 21.2055L13.0362 20.6142Z" stroke="#591DDD" stroke-width="1.5"/>
<path d="M19.168 18.084V22.6673" stroke="#591DDD" stroke-width="1.5" stroke-linecap="round"/>
<path d="M19.1667 26.3333C19.6729 26.3333 20.0833 25.9229 20.0833 25.4167C20.0833 24.9104 19.6729 24.5 19.1667 24.5C18.6604 24.5 18.25 24.9104 18.25 25.4167C18.25 25.9229 18.6604 26.3333 19.1667 26.3333Z" fill="#591DDD"/>
</g>
<defs>
<clipPath id="clip0_561_40687">
<rect width="20" height="20" fill="white" transform="translate(10 10)"/>
</clipPath>
</defs>
</svg>
