<svg width="40" height="40" viewBox="0 0 40 40" fill="none" xmlns="http://www.w3.org/2000/svg">
<rect width="40" height="40" rx="8" fill="#FEFEFE"/>
<g clip-path="url(#clip0_561_40753)">
<path d="M14 21H16.4C16.4 22.08 18.044 23 20 23C21.956 23 23.6 22.08 23.6 21C23.6 19.9 22.352 19.5 19.712 18.97C17.168 18.44 14 17.78 14 15C14 13.21 15.764 11.69 18.2 11.18V9H21.8V11.18C24.236 11.69 26 13.21 26 15H23.6C23.6 13.92 21.956 13 20 13C18.044 13 16.4 13.92 16.4 15C16.4 16.1 17.648 16.5 20.288 17.03C22.832 17.56 26 18.22 26 21C26 22.79 24.236 24.31 21.8 24.82V27H18.2V24.82C15.764 24.31 14 22.79 14 21Z" fill="#591DDD"/>
</g>
<defs>
<clipPath id="clip0_561_40753">
<rect width="20" height="20" fill="white" transform="translate(10 10)"/>
</clipPath>
</defs>
</svg>
