<svg width="40" height="40" viewBox="0 0 40 40" fill="none" xmlns="http://www.w3.org/2000/svg">
<rect width="40" height="40" rx="8" fill="#FEFEFE"/>
<path d="M20.5004 9.70117L20.2686 9.8742C17.5594 11.9106 14.8931 13.2455 10.822 13.9238L10.5 13.9754V14.3017C10.5 15.1174 10.8607 16.3926 11.4489 17.9554C12.0328 19.5226 12.8571 21.3387 13.8112 23.0733C14.7686 24.8079 15.8463 26.4609 16.9798 27.6974C18.1004 28.9382 19.2768 29.7969 20.5004 29.7969C21.7241 29.7969 22.9005 28.9382 24.0297 27.6974C25.1546 26.4609 26.2323 24.8079 27.194 23.0733C28.1472 21.3387 28.9672 19.5226 29.5554 17.9554C30.1393 16.3926 30.5 15.1174 30.5 14.3017V13.9754L30.1823 13.9238C26.1206 13.2455 23.4458 11.9106 20.7323 9.8742L20.5004 9.70117ZM20.5004 10.6543C23.1238 12.5881 25.8415 13.9238 29.7057 14.6194C29.6241 15.272 29.3193 16.3969 28.8341 17.6892C28.6581 18.1529 28.4649 18.6424 28.2459 19.149H21.8744V17.0495L24.6222 17.7365L20.5004 12.9295L16.3787 17.7365L19.1265 17.0495V19.149H12.7537C12.539 18.6424 12.3419 18.1529 12.1659 17.6892C11.685 16.3969 11.3759 15.272 11.2943 14.6194C15.1593 13.9238 17.8728 12.5881 20.5004 10.6543Z" fill="#591DDD"/>
</svg>
