<svg width="40" height="40" viewBox="0 0 40 40" fill="none" xmlns="http://www.w3.org/2000/svg">
<rect width="40" height="40" rx="8" fill="#FEFEFE"/>
<g clip-path="url(#clip0_561_40774)">
<path d="M10 12.9688C10 12.745 10.0988 12.5304 10.2746 12.3721C10.4504 12.2139 10.6889 12.125 10.9375 12.125H16.2537C17.7875 12.125 19.15 12.7888 20.0037 13.8136C20.4402 13.2886 21.0068 12.8625 21.6585 12.5693C22.3102 12.2761 23.0289 12.124 23.7575 12.125H29.0638C29.3124 12.125 29.5508 12.2139 29.7267 12.3721C29.9025 12.5304 30.0012 12.745 30.0012 12.9688V24.7813C30.0012 25.005 29.9025 25.2196 29.7267 25.3779C29.5508 25.5361 29.3124 25.625 29.0638 25.625H23.43C23.0607 25.625 22.6949 25.6905 22.3537 25.8177C22.0125 25.9449 21.7024 26.1313 21.4412 26.3664L20.6637 27.065C20.488 27.223 20.2497 27.3118 20.0013 27.3118C19.7528 27.3118 19.5145 27.223 19.3387 27.065L18.5612 26.3664C18.3001 26.1313 17.99 25.9449 17.6488 25.8177C17.3076 25.6905 16.9418 25.625 16.5725 25.625H10.9375C10.6889 25.625 10.4504 25.5361 10.2746 25.3779C10.0988 25.2196 10 25.005 10 24.7813V12.9688ZM19.0638 24.5833L19.0688 18.8761L19.0662 16.3415C19.0656 15.6706 18.769 15.0273 18.2416 14.5531C17.7142 14.0789 16.9992 13.8125 16.2537 13.8125H11.875V23.9375H16.5712C17.453 23.9375 18.3169 24.1613 19.0638 24.5833ZM20.9438 16.3438L20.9388 24.581C21.6852 24.1604 22.5481 23.9373 23.4288 23.9375H28.125V13.8125H23.7563C23.0103 13.8125 22.295 14.0792 21.7675 14.5539C21.2401 15.0286 20.9438 15.6724 20.9438 16.3438Z" fill="#591DDD"/>
</g>
<defs>
<clipPath id="clip0_561_40774">
<rect width="20" height="20" fill="white" transform="translate(10 10)"/>
</clipPath>
</defs>
</svg>
