<svg width="40" height="40" viewBox="0 0 40 40" fill="none" xmlns="http://www.w3.org/2000/svg">
<rect width="40" height="40" rx="8" fill="#FEFEFE"/>
<path d="M26.5312 17.5649V17.0645C26.5312 14.8112 23.1325 13.1113 18.625 13.1113C14.1175 13.1113 10.7188 14.8112 10.7188 17.0645V20.6582C10.7188 22.535 13.0771 24.0264 16.4688 24.473V24.9707C16.4688 27.224 19.8675 28.9238 24.375 28.9238C28.8825 28.9238 32.2812 27.224 32.2812 24.9707V21.377C32.2812 19.5172 29.9974 18.024 26.5312 17.5649ZM30.8438 21.377C30.8438 22.5647 28.0775 23.8926 24.375 23.8926C24.0399 23.8926 23.7075 23.8809 23.3795 23.8593C25.3175 23.1532 26.5312 22.0059 26.5312 20.6582V19.0177C29.2149 19.4175 30.8438 20.5028 30.8438 21.377ZM16.4688 23.0166V20.8792C17.1837 20.9724 17.904 21.0186 18.625 21.0176C19.346 21.0186 20.0663 20.9724 20.7812 20.8792V23.0166C20.0674 23.1221 19.3466 23.1746 18.625 23.1738C17.9034 23.1746 17.1826 23.1221 16.4688 23.0166ZM25.0938 19.3941V20.6582C25.0938 21.412 23.9788 22.2215 22.2188 22.7129V20.6133C23.3786 20.3321 24.3606 19.9134 25.0938 19.3941ZM18.625 14.5488C22.3275 14.5488 25.0938 15.8767 25.0938 17.0645C25.0938 18.2522 22.3275 19.5801 18.625 19.5801C14.9225 19.5801 12.1562 18.2522 12.1562 17.0645C12.1562 15.8767 14.9225 14.5488 18.625 14.5488ZM12.1562 20.6582V19.3941C12.8894 19.9134 13.8714 20.3321 15.0312 20.6133V22.7129C13.2712 22.2215 12.1562 21.412 12.1562 20.6582ZM17.9062 24.9707V24.5961C18.1425 24.605 18.3815 24.6113 18.625 24.6113C18.9736 24.6113 19.3141 24.5996 19.6483 24.5799C20.0196 24.7128 20.3978 24.8256 20.7812 24.9177V27.0254C19.0212 26.534 17.9062 25.7245 17.9062 24.9707ZM22.2188 27.3291V25.1863C22.9335 25.2824 23.6538 25.3304 24.375 25.3301C25.096 25.3311 25.8163 25.2849 26.5312 25.1917V27.3291C25.1014 27.5387 23.6486 27.5387 22.2188 27.3291ZM27.9688 27.0254V24.9258C29.1286 24.6446 30.1106 24.2259 30.8438 23.7066V24.9707C30.8438 25.7245 29.7288 26.534 27.9688 27.0254Z" fill="#591DDD"/>
</svg>
