<svg width="40" height="40" viewBox="0 0 40 40" fill="none" xmlns="http://www.w3.org/2000/svg">
<rect width="40" height="40" rx="8" fill="#FEFEFE"/>
<path opacity="0.2" d="M22.375 19C22.375 19.6428 22.2064 20.2711 21.8905 20.8056C21.5746 21.3401 21.1256 21.7566 20.6002 22.0026C20.0749 22.2486 19.4968 22.313 18.9391 22.1876C18.3814 22.0622 17.8691 21.7526 17.4671 21.2981C17.065 20.8436 16.7912 20.2645 16.6802 19.634C16.5693 19.0036 16.6262 18.3501 16.8438 17.7563C17.0614 17.1624 17.4299 16.6548 17.9027 16.2977C18.3755 15.9406 18.9314 15.75 19.5 15.75C20.2625 15.75 20.9938 16.0924 21.5329 16.7019C22.0721 17.3114 22.375 18.138 22.375 19ZM25.9688 12.5C26.1209 13.5149 26.5486 14.4512 27.1925 15.1791C27.8364 15.907 28.6647 16.3905 29.5625 16.5625V12.5H25.9688ZM25.9688 25.5H29.5625V21.4375C28.6647 21.6095 27.8364 22.093 27.1925 22.8209C26.5486 23.5488 26.1209 24.4851 25.9688 25.5ZM9.4375 21.4375V25.5H13.0312C12.8791 24.4851 12.4514 23.5488 11.8075 22.8209C11.1636 22.093 10.3353 21.6095 9.4375 21.4375ZM9.4375 16.5625C10.3353 16.3905 11.1636 15.907 11.8075 15.1791C12.4514 14.4512 12.8791 13.5149 13.0312 12.5H9.4375V16.5625Z" fill="#591DDD"/>
<path d="M19.5 14.9375C18.7892 14.9375 18.0944 15.1758 17.5034 15.6222C16.9124 16.0685 16.4518 16.703 16.1798 17.4453C15.9078 18.1877 15.8366 19.0045 15.9753 19.7926C16.114 20.5806 16.4562 21.3045 16.9588 21.8726C17.4614 22.4408 18.1018 22.8277 18.7989 22.9844C19.496 23.1412 20.2186 23.0607 20.8753 22.7533C21.5319 22.4458 22.0932 21.9251 22.4881 21.257C22.883 20.5889 23.0938 19.8035 23.0938 19C23.0938 17.9226 22.7151 16.8892 22.0412 16.1274C21.3672 15.3655 20.4531 14.9375 19.5 14.9375ZM19.5 21.4375C19.0735 21.4375 18.6566 21.2945 18.3021 21.0267C17.9475 20.7589 17.6711 20.3782 17.5079 19.9328C17.3447 19.4874 17.302 18.9973 17.3852 18.5245C17.4684 18.0516 17.6737 17.6173 17.9753 17.2764C18.2769 16.9355 18.6611 16.7034 19.0793 16.6093C19.4976 16.5153 19.9312 16.5636 20.3252 16.748C20.7192 16.9325 21.0559 17.245 21.2929 17.6458C21.5298 18.0466 21.6562 18.5179 21.6562 19C21.6562 19.6465 21.4291 20.2665 21.0247 20.7236C20.6203 21.1807 20.0719 21.4375 19.5 21.4375ZM29.5625 11.6875H9.4375C9.24688 11.6875 9.06406 11.7731 8.92927 11.9255C8.79448 12.0778 8.71875 12.2845 8.71875 12.5V25.5C8.71875 25.7155 8.79448 25.9222 8.92927 26.0745C9.06406 26.2269 9.24688 26.3125 9.4375 26.3125H29.5625C29.7531 26.3125 29.9359 26.2269 30.0707 26.0745C30.2055 25.9222 30.2812 25.7155 30.2812 25.5V12.5C30.2812 12.2845 30.2055 12.0778 30.0707 11.9255C29.9359 11.7731 29.7531 11.6875 29.5625 11.6875ZM10.1562 13.3125H12.0762C11.7055 14.2871 11.0184 15.0638 10.1562 15.4829V13.3125ZM10.1562 24.6875V22.5171C11.0184 22.9362 11.7055 23.7129 12.0762 24.6875H10.1562ZM28.8438 24.6875H26.9238C27.2945 23.7129 27.9816 22.9362 28.8438 22.5171V24.6875ZM28.8438 20.7926C28.0276 21.0654 27.2848 21.5646 26.683 22.2449C26.0812 22.9252 25.6396 23.7649 25.3982 24.6875H13.6018C13.3604 23.7649 12.9188 22.9252 12.317 22.2449C11.7152 21.5646 10.9724 21.0654 10.1562 20.7926V17.2074C10.9724 16.9346 11.7152 16.4354 12.317 15.7551C12.9188 15.0748 13.3604 14.2351 13.6018 13.3125H25.3982C25.6396 14.2351 26.0812 15.0748 26.683 15.7551C27.2848 16.4354 28.0276 16.9346 28.8438 17.2074V20.7926ZM28.8438 15.4829C27.9816 15.0638 27.2945 14.2871 26.9238 13.3125H28.8438V15.4829Z" fill="#591DDD"/>
</svg>
