<svg width="40" height="40" viewBox="0 0 40 40" fill="none" xmlns="http://www.w3.org/2000/svg">
<rect width="40" height="40" rx="8" fill="#FEFEFE"/>
<path d="M23.1602 17.5352C24.1262 17.5352 24.9102 18.3192 24.9102 19.2852V26.0342C24.9102 27.4931 24.3307 28.8923 23.299 29.924C22.2674 30.9556 20.8682 31.5352 19.4093 31.5352C17.9503 31.5352 16.5511 30.9556 15.5195 29.924C14.4878 28.8923 13.9083 27.4931 13.9083 26.0342V19.2852C13.9083 18.3192 14.6912 17.5352 15.6582 17.5352H23.1602ZM9.15625 17.5352L13.5383 17.5332C13.1779 17.9674 12.961 18.5026 12.9173 19.0652L12.9073 19.2852V26.0342C12.9073 27.1672 13.1983 28.2332 13.7073 29.1612C13.0222 29.4601 12.2734 29.5837 11.5286 29.5208C10.7838 29.4579 10.0664 29.2105 9.4411 28.801C8.81583 28.3915 8.30239 27.8326 7.94713 27.175C7.59187 26.5174 7.40599 25.7816 7.40625 25.0342V19.2852C7.40652 18.8209 7.59111 18.3758 7.91946 18.0477C8.24781 17.7195 8.69203 17.5352 9.15625 17.5352ZM25.2803 17.5332L29.6562 17.5352C30.6222 17.5352 31.4062 18.3192 31.4062 19.2852V25.0352C31.4066 25.7823 31.2208 26.5178 30.8658 27.1752C30.5107 27.8326 29.9976 28.3913 29.3727 28.8008C28.7477 29.2104 28.0307 29.4578 27.2862 29.5209C26.5417 29.584 25.7932 29.4607 25.1082 29.1622L25.1642 29.0602C25.5933 28.2472 25.8542 27.3312 25.9023 26.3602L25.9102 26.0342V19.2852C25.9102 18.6192 25.6733 18.0092 25.2803 17.5332ZM19.4062 9.53516C19.8659 9.53516 20.321 9.62569 20.7456 9.80158C21.1703 9.97747 21.5561 10.2353 21.8811 10.5603C22.2061 10.8853 22.4639 11.2711 22.6398 11.6958C22.8157 12.1204 22.9062 12.5755 22.9062 13.0352C22.9062 13.4948 22.8157 13.9499 22.6398 14.3745C22.4639 14.7992 22.2061 15.185 21.8811 15.51C21.5561 15.835 21.1703 16.0928 20.7456 16.2687C20.321 16.4446 19.8659 16.5352 19.4062 16.5352C18.478 16.5352 17.5878 16.1664 16.9314 15.51C16.275 14.8537 15.9062 13.9634 15.9062 13.0352C15.9062 12.1069 16.275 11.2167 16.9314 10.5603C17.5878 9.90391 18.478 9.53516 19.4062 9.53516ZM27.4093 10.5352C27.8032 10.5352 28.1933 10.6128 28.5573 10.7635C28.9213 10.9143 29.252 11.1353 29.5306 11.4138C29.8091 11.6924 30.0301 12.0231 30.1809 12.3871C30.3317 12.7511 30.4093 13.1412 30.4093 13.5352C30.4093 13.9291 30.3317 14.3192 30.1809 14.6832C30.0301 15.0472 29.8091 15.3779 29.5306 15.6565C29.252 15.9351 28.9213 16.156 28.5573 16.3068C28.1933 16.4576 27.8032 16.5352 27.4093 16.5352C26.6136 16.5352 25.8505 16.2191 25.2879 15.6565C24.7253 15.0939 24.4093 14.3308 24.4093 13.5352C24.4093 12.7395 24.7253 11.9764 25.2879 11.4138C25.8505 10.8512 26.6136 10.5352 27.4093 10.5352ZM11.4033 10.5352C11.7972 10.5352 12.1873 10.6128 12.5513 10.7635C12.9153 10.9143 13.246 11.1353 13.5246 11.4138C13.8031 11.6924 14.0241 12.0231 14.1749 12.3871C14.3257 12.7511 14.4033 13.1412 14.4033 13.5352C14.4033 13.9291 14.3257 14.3192 14.1749 14.6832C14.0241 15.0472 13.8031 15.3779 13.5246 15.6565C13.246 15.9351 12.9153 16.156 12.5513 16.3068C12.1873 16.4576 11.7972 16.5352 11.4033 16.5352C10.6076 16.5352 9.84454 16.2191 9.28193 15.6565C8.71932 15.0939 8.40325 14.3308 8.40325 13.5352C8.40325 12.7395 8.71932 11.9764 9.28193 11.4138C9.84454 10.8512 10.6076 10.5352 11.4033 10.5352Z" fill="#591DDD"/>
</svg>
