<svg width="41" height="41" viewBox="0 0 41 41" fill="none" xmlns="http://www.w3.org/2000/svg">
<rect x="0.980469" y="0.625" width="40" height="40" rx="8" fill="#FEFEFE"/>
<path d="M30.1765 16.3977L25.1452 11.3665C25.0784 11.2998 24.9991 11.2468 24.9119 11.2108C24.8246 11.1747 24.7311 11.1562 24.6367 11.1563H16.0117C15.6305 11.1563 15.2648 11.3077 14.9953 11.5773C14.7257 11.8469 14.5742 12.2125 14.5742 12.5938V28.4062C14.5742 28.7875 14.7257 29.1531 14.9953 29.4227C15.2648 29.6923 15.6305 29.8438 16.0117 29.8438H28.9492C29.3305 29.8438 29.6961 29.6923 29.9657 29.4227C30.2353 29.1531 30.3867 28.7875 30.3867 28.4062V16.9062C30.3868 16.8118 30.3683 16.7183 30.3322 16.6311C30.2961 16.5438 30.2432 16.4645 30.1765 16.3977ZM25.3555 13.6099L27.9331 16.1875H25.3555V13.6099ZM28.9492 28.4062H16.0117V12.5938H23.918V16.9062C23.918 17.0969 23.9937 17.2797 24.1285 17.4145C24.2633 17.5493 24.4461 17.625 24.6367 17.625H28.9492V28.4062Z" fill="#591DDD"/>
</svg>
