<svg width="41" height="41" viewBox="0 0 41 41" fill="none" xmlns="http://www.w3.org/2000/svg">
<rect x="0.980469" y="0.625" width="40" height="40" rx="8" fill="#FEFEFE"/>
<path d="M31.906 10.5963H14.4947C14.3635 10.5963 14.2562 10.7036 14.2562 10.8348V12.5044C14.2562 12.6355 14.3635 12.7429 14.4947 12.7429H31.906C32.0372 12.7429 32.1445 12.6355 32.1445 12.5044V10.8348C32.1445 10.7036 32.0372 10.5963 31.906 10.5963ZM31.906 19.0634H14.4947C14.3635 19.0634 14.2562 19.1707 14.2562 19.3019V20.9715C14.2562 21.1027 14.3635 21.21 14.4947 21.21H31.906C32.0372 21.21 32.1445 21.1027 32.1445 20.9715V19.3019C32.1445 19.1707 32.0372 19.0634 31.906 19.0634ZM31.906 27.5306H14.4947C14.3635 27.5306 14.2562 27.6379 14.2562 27.7691V29.4386C14.2562 29.5698 14.3635 29.6772 14.4947 29.6772H31.906C32.0372 29.6772 32.1445 29.5698 32.1445 29.4386V27.7691C32.1445 27.6379 32.0372 27.5306 31.906 27.5306ZM7.81641 11.6696C7.81641 11.8888 7.85959 12.1059 7.9435 12.3085C8.0274 12.5111 8.15038 12.6951 8.30541 12.8501C8.46045 13.0052 8.6445 13.1282 8.84706 13.2121C9.04963 13.296 9.26673 13.3392 9.48598 13.3392C9.70524 13.3392 9.92234 13.296 10.1249 13.2121C10.3275 13.1282 10.5115 13.0052 10.6666 12.8501C10.8216 12.6951 10.9446 12.5111 11.0285 12.3085C11.1124 12.1059 11.1556 11.8888 11.1556 11.6696C11.1556 11.4503 11.1124 11.2332 11.0285 11.0307C10.9446 10.8281 10.8216 10.644 10.6666 10.489C10.5115 10.334 10.3275 10.211 10.1249 10.1271C9.92234 10.0432 9.70524 10 9.48598 10C9.26673 10 9.04963 10.0432 8.84706 10.1271C8.6445 10.211 8.46045 10.334 8.30541 10.489C8.15038 10.644 8.0274 10.8281 7.9435 11.0307C7.85959 11.2332 7.81641 11.4503 7.81641 11.6696ZM7.81641 20.1367C7.81641 20.356 7.85959 20.5731 7.9435 20.7756C8.0274 20.9782 8.15038 21.1623 8.30541 21.3173C8.46045 21.4723 8.6445 21.5953 8.84706 21.6792C9.04963 21.7631 9.26673 21.8063 9.48598 21.8063C9.70524 21.8063 9.92234 21.7631 10.1249 21.6792C10.3275 21.5953 10.5115 21.4723 10.6666 21.3173C10.8216 21.1623 10.9446 20.9782 11.0285 20.7756C11.1124 20.5731 11.1556 20.356 11.1556 20.1367C11.1556 19.9175 11.1124 19.7004 11.0285 19.4978C10.9446 19.2952 10.8216 19.1112 10.6666 18.9561C10.5115 18.8011 10.3275 18.6781 10.1249 18.5942C9.92234 18.5103 9.70524 18.4671 9.48598 18.4671C9.26673 18.4671 9.04963 18.5103 8.84706 18.5942C8.6445 18.6781 8.46045 18.8011 8.30541 18.9561C8.15038 19.1112 8.0274 19.2952 7.9435 19.4978C7.85959 19.7004 7.81641 19.9175 7.81641 20.1367ZM7.81641 28.6039C7.81641 28.8231 7.85959 29.0402 7.9435 29.2428C8.0274 29.4453 8.15038 29.6294 8.30541 29.7844C8.46045 29.9395 8.6445 30.0624 8.84706 30.1463C9.04963 30.2303 9.26673 30.2734 9.48598 30.2734C9.70524 30.2734 9.92234 30.2303 10.1249 30.1463C10.3275 30.0624 10.5115 29.9395 10.6666 29.7844C10.8216 29.6294 10.9446 29.4453 11.0285 29.2428C11.1124 29.0402 11.1556 28.8231 11.1556 28.6039C11.1556 28.3846 11.1124 28.1675 11.0285 27.9649C10.9446 27.7624 10.8216 27.5783 10.6666 27.4233C10.5115 27.2683 10.3275 27.1453 10.1249 27.0614C9.92234 26.9775 9.70524 26.9343 9.48598 26.9343C9.26673 26.9343 9.04963 26.9775 8.84706 27.0614C8.6445 27.1453 8.46045 27.2683 8.30541 27.4233C8.15038 27.5783 8.0274 27.7624 7.9435 27.9649C7.85959 28.1675 7.81641 28.3846 7.81641 28.6039Z" fill="#591DDD"/>
</svg>
