<svg width="41" height="41" viewBox="0 0 41 41" fill="none" xmlns="http://www.w3.org/2000/svg">
<rect x="0.980469" y="0.625" width="40" height="40" rx="8" fill="#FEFEFE"/>
<path d="M20.9805 15.125C21.6435 15.125 22.2794 15.3884 22.7482 15.8572C23.2171 16.3261 23.4805 16.962 23.4805 17.625C23.4805 17.9533 23.4158 18.2784 23.2902 18.5817C23.1645 18.885 22.9804 19.1606 22.7482 19.3928C22.5161 19.6249 22.2405 19.8091 21.9372 19.9347C21.6339 20.0603 21.3088 20.125 20.9805 20.125C20.3174 20.125 19.6815 19.8616 19.2127 19.3928C18.7439 18.9239 18.4805 18.288 18.4805 17.625C18.4805 16.962 18.7439 16.3261 19.2127 15.8572C19.6815 15.3884 20.3174 15.125 20.9805 15.125ZM20.9805 10.625C22.837 10.625 24.6175 11.3625 25.9302 12.6753C27.243 13.988 27.9805 15.7685 27.9805 17.625C27.9805 22.875 20.9805 30.625 20.9805 30.625C20.9805 30.625 13.9805 22.875 13.9805 17.625C13.9805 15.7685 14.718 13.988 16.0307 12.6753C17.3435 11.3625 19.124 10.625 20.9805 10.625ZM20.9805 12.625C19.6544 12.625 18.3826 13.1518 17.4449 14.0895C16.5073 15.0271 15.9805 16.2989 15.9805 17.625C15.9805 18.625 15.9805 20.625 20.9805 27.335C25.9805 20.625 25.9805 18.625 25.9805 17.625C25.9805 16.2989 25.4537 15.0271 24.516 14.0895C23.5783 13.1518 22.3066 12.625 20.9805 12.625Z" fill="#591DDD"/>
</svg>
