<svg width="41" height="41" viewBox="0 0 41 41" fill="none" xmlns="http://www.w3.org/2000/svg">
<rect x="0.980469" y="0.625" width="40" height="40" rx="8" fill="#FEFEFE"/>
<path d="M29.2115 23.885L26.6715 23.595C26.3728 23.5599 26.0701 23.593 25.786 23.6917C25.502 23.7904 25.244 23.9523 25.0315 24.165L23.1915 26.005C20.3527 24.5612 18.0453 22.2538 16.6015 19.415L18.4515 17.565C18.8815 17.135 19.0915 16.535 19.0215 15.925L18.7315 13.405C18.6748 12.9172 18.4407 12.4672 18.0737 12.1409C17.7068 11.8145 17.2326 11.6344 16.7415 11.635H15.0115C13.8815 11.635 12.9415 12.575 13.0115 13.705C13.5415 22.245 20.3715 29.065 28.9015 29.595C30.0315 29.665 30.9715 28.725 30.9715 27.595V25.865C30.9815 24.855 30.2215 24.005 29.2115 23.885Z" fill="#591DDD"/>
</svg>
