<svg width="41" height="41" viewBox="0 0 41 41" fill="none" xmlns="http://www.w3.org/2000/svg">
<rect x="0.980469" y="0.625" width="40" height="40" rx="8" fill="#FEFEFE"/>
<path d="M23.9805 27.625C27.7515 27.625 29.6375 27.625 30.8085 26.453C31.9805 25.282 31.9805 23.396 31.9805 19.625C31.9805 15.854 31.9805 13.968 30.8085 12.797C29.6375 11.625 27.7515 11.625 23.9805 11.625H19.9805C16.2095 11.625 14.3235 11.625 13.1525 12.797C11.9805 13.968 11.9805 15.854 11.9805 19.625C11.9805 23.396 11.9805 25.282 13.1525 26.453C13.8055 27.107 14.6805 27.396 15.9805 27.523" stroke="#591DDD" stroke-width="2" stroke-linecap="round" stroke-linejoin="round"/>
<path d="M23.9817 27.625C22.7457 27.625 21.3837 28.125 20.1407 28.77C18.1427 29.807 17.1437 30.326 16.6517 29.995C16.1597 29.665 16.2527 28.64 16.4397 26.591L16.4817 26.125" stroke="#591DDD" stroke-width="2" stroke-linecap="round"/>
<path d="M15.4805 22.125L16.4805 20.125M16.4805 20.125L17.5865 17.914C17.6696 17.7481 17.7973 17.6086 17.9551 17.5112C18.113 17.4137 18.2949 17.3621 18.4805 17.3621C18.666 17.3621 18.8479 17.4137 19.0058 17.5112C19.1637 17.6086 19.2913 17.7481 19.3745 17.914L20.4805 20.125M16.4805 20.125H20.4805M20.4805 20.125L21.4805 22.125M22.4805 16.125H24.4625V17.625C24.4625 18.125 23.9665 19.125 22.9755 19.125M26.9395 16.125V18.125M26.9395 18.125V22.125M26.9395 18.125H28.4805" stroke="#591DDD" stroke-width="2" stroke-linecap="round" stroke-linejoin="round"/>
</svg>
