<svg width="41" height="41" viewBox="0 0 41 41" fill="none" xmlns="http://www.w3.org/2000/svg">
<rect x="0.980469" y="0.625" width="40" height="40" rx="8" fill="#FEFEFE"/>
<path d="M22.7222 21.2308C22.5999 21.1908 21.8268 20.8423 22.3099 19.3738H22.303C23.5622 18.0769 24.5245 15.99 24.5245 13.9354C24.5245 10.7762 22.4237 9.12 19.9822 9.12C17.5391 9.12 15.4499 10.7754 15.4499 13.9354C15.4499 15.9985 16.4068 18.0938 17.6737 19.3877C18.1676 20.6831 17.2845 21.1638 17.0999 21.2315C14.543 22.1562 11.543 23.8415 11.543 25.5054V26.1292C11.543 28.3962 15.9384 28.9115 20.006 28.9115C24.0799 28.9115 28.4199 28.3962 28.4199 26.1292V25.5054C28.4199 23.7915 25.4053 22.1192 22.7222 21.2308Z" fill="#591DDD"/>
</svg>
