<svg width="61" height="61" viewBox="0 0 61 61" fill="none" xmlns="http://www.w3.org/2000/svg">
<rect x="0.980469" y="0.625" width="60" height="60" rx="15" fill="#FEFEFE"/>
<path d="M37.0115 35.617L41.2945 39.899L39.8795 41.314L35.5975 37.031C34.0042 38.3082 32.0225 39.0029 29.9805 39C25.0125 39 20.9805 34.968 20.9805 30C20.9805 25.032 25.0125 21 29.9805 21C34.9485 21 38.9805 25.032 38.9805 30C38.9834 32.042 38.2887 34.0237 37.0115 35.617ZM35.0055 34.875C36.2746 33.5699 36.9833 31.8204 36.9805 30C36.9805 26.133 33.8475 23 29.9805 23C26.1135 23 22.9805 26.133 22.9805 30C22.9805 33.867 26.1135 37 29.9805 37C31.8009 37.0029 33.5504 36.2941 34.8555 35.025L35.0055 34.875Z" fill="#591DDD"/>
</svg>
