<svg width="41" height="41" viewBox="0 0 41 41" fill="none" xmlns="http://www.w3.org/2000/svg">
<rect x="0.980469" y="0.625" width="40" height="40" rx="8" fill="#FEFEFE"/>
<path d="M30.9815 19.0005C30.9815 20.3138 30.7228 21.6142 30.2202 22.8275C29.7177 24.0408 28.981 25.1433 28.0524 26.0719C27.1238 27.0006 26.0213 27.7372 24.808 28.2398C23.5947 28.7423 22.2943 29.001 20.981 29.001C19.6677 29.001 18.3673 28.7423 17.1539 28.2398C15.9406 27.7372 14.8382 27.0006 13.9095 26.0719C12.9809 25.1433 12.2443 24.0408 11.7417 22.8275C11.2391 21.6142 10.9805 20.3138 10.9805 19.0005C10.9805 16.3482 12.0341 13.8045 13.9095 11.9291C15.785 10.0536 18.3287 9 20.981 9C23.6333 9 26.1769 10.0536 28.0524 11.9291C29.9278 13.8045 30.9815 16.3482 30.9815 19.0005Z" stroke="#591DDD" stroke-width="1.5"/>
<path d="M24.9805 19.0005C24.9805 20.3135 24.8765 21.6145 24.6755 22.8275C24.4755 24.0405 24.1805 25.1425 23.8085 26.0715C23.4375 27.0005 22.9965 27.7365 22.5115 28.2395C22.0255 28.7415 21.5055 29.0005 20.9805 29.0005C20.4555 29.0005 19.9355 28.7415 19.4505 28.2395C18.9645 27.7365 18.5235 26.9995 18.1525 26.0715C17.7805 25.1425 17.4855 24.0415 17.2845 22.8275C17.0795 21.5622 16.9778 20.2823 16.9805 19.0005C16.9805 17.6875 17.0835 16.3865 17.2845 15.1735C17.4855 13.9605 17.7805 12.8585 18.1525 11.9295C18.5235 11.0005 18.9645 10.2645 19.4495 9.76149C19.9355 9.26049 20.4555 9.00049 20.9805 9.00049C21.5055 9.00049 22.0255 9.25949 22.5105 9.76149C22.9965 10.2645 23.4375 11.0015 23.8085 11.9295C24.1805 12.8585 24.4755 13.9595 24.6755 15.1735C24.8765 16.3865 24.9805 17.6875 24.9805 19.0005Z" stroke="#591DDD" stroke-width="1.5"/>
<path d="M10.9805 19.0005H30.9805" stroke="#591DDD" stroke-width="1.5" stroke-linecap="round"/>
</svg>
