<svg width="40" height="41" viewBox="0 0 40 41" fill="none" xmlns="http://www.w3.org/2000/svg">
<rect y="0.5" width="40" height="40" rx="8" fill="#FEFEFE"/>
<path d="M23.754 17.5C24.72 17.5 25.504 18.284 25.504 19.25V25.999C25.504 27.458 24.9244 28.8572 23.8928 29.8888C22.8612 30.9204 21.462 31.5 20.003 31.5C18.544 31.5 17.1448 30.9204 16.1132 29.8888C15.0816 28.8572 14.502 27.458 14.502 25.999V19.25C14.502 18.284 15.285 17.5 16.252 17.5H23.754ZM9.75 17.5L14.132 17.498C13.7716 17.9322 13.5547 18.4674 13.511 19.03L13.501 19.25V25.999C13.501 27.132 13.792 28.198 14.301 29.126C13.6159 29.4249 12.8672 29.5485 12.1224 29.4856C11.3776 29.4228 10.6601 29.1754 10.0349 28.7658C9.40958 28.3563 8.89614 27.7975 8.54088 27.1399C8.18562 26.4822 7.99974 25.7465 8 24.999V19.25C8.00027 18.7858 8.18486 18.3407 8.51321 18.0125C8.84156 17.6843 9.28578 17.5 9.75 17.5ZM25.874 17.498L30.25 17.5C31.216 17.5 32 18.284 32 19.25V25C32.0003 25.7472 31.8146 26.4826 31.4595 27.1401C31.1045 27.7975 30.5914 28.3562 29.9664 28.7657C29.3415 29.1752 28.6244 29.4227 27.8799 29.4857C27.1354 29.5488 26.3869 29.4255 25.702 29.127L25.758 29.025C26.187 28.212 26.448 27.296 26.496 26.325L26.504 25.999V19.25C26.504 18.584 26.267 17.974 25.874 17.498ZM20 9.5C20.4596 9.5 20.9148 9.59053 21.3394 9.76642C21.764 9.94231 22.1499 10.2001 22.4749 10.5251C22.7999 10.8501 23.0577 11.236 23.2336 11.6606C23.4095 12.0852 23.5 12.5404 23.5 13C23.5 13.4596 23.4095 13.9148 23.2336 14.3394C23.0577 14.764 22.7999 15.1499 22.4749 15.4749C22.1499 15.7999 21.764 16.0577 21.3394 16.2336C20.9148 16.4095 20.4596 16.5 20 16.5C19.0717 16.5 18.1815 16.1313 17.5251 15.4749C16.8687 14.8185 16.5 13.9283 16.5 13C16.5 12.0717 16.8687 11.1815 17.5251 10.5251C18.1815 9.86875 19.0717 9.5 20 9.5ZM28.003 10.5C28.397 10.5 28.7871 10.5776 29.1511 10.7284C29.515 10.8791 29.8457 11.1001 30.1243 11.3787C30.4029 11.6573 30.6239 11.988 30.7746 12.3519C30.9254 12.7159 31.003 13.106 31.003 13.5C31.003 13.894 30.9254 14.2841 30.7746 14.6481C30.6239 15.012 30.4029 15.3427 30.1243 15.6213C29.8457 15.8999 29.515 16.1209 29.1511 16.2716C28.7871 16.4224 28.397 16.5 28.003 16.5C27.2074 16.5 26.4443 16.1839 25.8817 15.6213C25.3191 15.0587 25.003 14.2956 25.003 13.5C25.003 12.7044 25.3191 11.9413 25.8817 11.3787C26.4443 10.8161 27.2074 10.5 28.003 10.5ZM11.997 10.5C12.391 10.5 12.7811 10.5776 13.1451 10.7284C13.509 10.8791 13.8397 11.1001 14.1183 11.3787C14.3969 11.6573 14.6179 11.988 14.7686 12.3519C14.9194 12.7159 14.997 13.106 14.997 13.5C14.997 13.894 14.9194 14.2841 14.7686 14.6481C14.6179 15.012 14.3969 15.3427 14.1183 15.6213C13.8397 15.8999 13.509 16.1209 13.1451 16.2716C12.7811 16.4224 12.391 16.5 11.997 16.5C11.2014 16.5 10.4383 16.1839 9.87568 15.6213C9.31307 15.0587 8.997 14.2956 8.997 13.5C8.997 12.7044 9.31307 11.9413 9.87568 11.3787C10.4383 10.8161 11.2014 10.5 11.997 10.5Z" fill="#591DDD"/>
</svg>
