<svg width="40" height="41" viewBox="0 0 40 41" fill="none" xmlns="http://www.w3.org/2000/svg">
<rect y="0.5" width="40" height="40" rx="8" fill="#FEFEFE"/>
<g clip-path="url(#clip0_561_40542)">
<path d="M14.0362 19.1142C16.7111 14.3714 18.0485 12 20.1669 12C22.2844 12 23.6227 14.3714 26.2976 19.1142L26.6312 19.7055C28.8541 23.6472 29.9661 25.618 28.9614 27.059C27.9567 28.5 25.4707 28.5 20.5006 28.5H19.8332C14.8631 28.5 12.3771 28.5 11.3724 27.059C10.3677 25.618 11.4796 23.6472 13.7026 19.7055L14.0362 19.1142Z" stroke="#591DDD" stroke-width="1.5"/>
<path d="M20.168 16.584V21.1673" stroke="#591DDD" stroke-width="1.5" stroke-linecap="round"/>
<path d="M20.1667 24.8333C20.6729 24.8333 21.0833 24.4229 21.0833 23.9167C21.0833 23.4104 20.6729 23 20.1667 23C19.6604 23 19.25 23.4104 19.25 23.9167C19.25 24.4229 19.6604 24.8333 20.1667 24.8333Z" fill="#591DDD"/>
</g>
<defs>
<clipPath id="clip0_561_40542">
<rect width="20" height="20" fill="white" transform="translate(11 8.5)"/>
</clipPath>
</defs>
</svg>
