<svg width="40" height="41" viewBox="0 0 40 41" fill="none" xmlns="http://www.w3.org/2000/svg">
<rect y="0.5" width="40" height="40" rx="8" fill="#FEFEFE"/>
<g clip-path="url(#clip0_561_40480)">
<path d="M14 21.5H16.4C16.4 22.58 18.044 23.5 20 23.5C21.956 23.5 23.6 22.58 23.6 21.5C23.6 20.4 22.352 20 19.712 19.47C17.168 18.94 14 18.28 14 15.5C14 13.71 15.764 12.19 18.2 11.68V9.5H21.8V11.68C24.236 12.19 26 13.71 26 15.5H23.6C23.6 14.42 21.956 13.5 20 13.5C18.044 13.5 16.4 14.42 16.4 15.5C16.4 16.6 17.648 17 20.288 17.53C22.832 18.06 26 18.72 26 21.5C26 23.29 24.236 24.81 21.8 25.32V27.5H18.2V25.32C15.764 24.81 14 23.29 14 21.5Z" fill="#591DDD"/>
</g>
<defs>
<clipPath id="clip0_561_40480">
<rect width="20" height="20" fill="white" transform="translate(10 10.5)"/>
</clipPath>
</defs>
</svg>
