<svg width="40" height="41" viewBox="0 0 40 41" fill="none" xmlns="http://www.w3.org/2000/svg">
<rect y="0.5" width="40" height="40" rx="8" fill="#FEFEFE"/>
<path d="M12.6369 26.6775C12.2869 26.0712 12.2004 25.438 12.3773 24.7778C12.5542 24.1175 12.9458 23.6124 13.552 23.2624C14.1582 22.9124 14.7915 22.8259 15.4517 23.0028C16.1119 23.1797 16.6171 23.5712 16.9671 24.1775C17.3171 24.7837 17.4036 25.4169 17.2267 26.0772C17.0498 26.7374 16.6582 27.2425 16.052 27.5925C15.4458 27.9425 14.8126 28.0291 14.1523 27.8522C13.4921 27.6752 12.9869 27.2837 12.6369 26.6775ZM14.705 18.9594L15.5169 16.0658C16.8602 16.4257 18.112 17.0359 19.2723 17.8963C20.4327 18.7567 21.3963 19.8505 22.1632 21.1775C22.9299 22.5054 23.392 23.889 23.5494 25.3285C23.7069 26.7679 23.5983 28.1631 23.2236 29.5142L20.355 28.7455C20.6234 27.7438 20.6964 26.7201 20.5739 25.6746C20.4514 24.6291 20.1151 23.6301 19.5651 22.6775C19.0151 21.7248 18.3181 20.9341 17.4739 20.3053C16.6297 19.6765 15.7067 19.2278 14.705 18.9594ZM16.2606 13.1538L17.0292 10.2852C19.1527 10.8297 21.1094 11.7689 22.8994 13.1025C24.6894 14.4362 26.176 16.1279 27.3594 18.1775C28.5427 20.2271 29.2644 22.3604 29.5244 24.5774C29.7844 26.7944 29.6194 28.9585 29.0292 31.0698L26.1606 30.3011C26.6303 28.548 26.7563 26.7575 26.5384 24.9295C26.3206 23.1016 25.7282 21.3509 24.7613 19.6775C23.7946 18.0031 22.5742 16.6147 21.1001 15.512C19.6259 14.4094 18.0127 13.6233 16.2606 13.1538Z" fill="#591DDD"/>
</svg>
