<svg width="40" height="41" viewBox="0 0 40 41" fill="none" xmlns="http://www.w3.org/2000/svg">
<rect y="0.5" width="40" height="40" rx="8" fill="#FEFEFE"/>
<path d="M26.6761 25.5195H26.0398V24.8945C26.0398 24.5195 25.7852 24.2695 25.4034 24.2695H24.767V18.0195H26.0398L27.3125 15.5195C26.0398 15.6445 24.767 15.6445 23.4943 15.5195C22.4761 14.7695 21.7125 14.0195 20.9489 13.0195V12.3945C20.9489 12.0195 20.6943 11.7695 20.3125 11.7695C19.9307 11.7695 19.6761 12.0195 19.6761 12.3945V13.0195C18.9125 14.0195 18.1489 14.7695 17.1307 15.5195C15.858 15.6445 14.5852 15.6445 13.3125 15.5195L14.5852 18.0195H15.858V24.2695H15.2216C14.8398 24.2695 14.5852 24.5195 14.5852 24.8945V25.5195H13.9489C13.567 25.5195 13.3125 25.7695 13.3125 26.1445V26.7695H27.3125V26.1445C27.3125 25.7695 27.058 25.5195 26.6761 25.5195ZM19.6761 24.2695H17.1307V18.0195H19.6761V24.2695ZM23.4943 24.2695H20.9489V18.0195H23.4943V24.2695Z" fill="#591DDD"/>
</svg>
