<svg width="40" height="41" viewBox="0 0 40 41" fill="none" xmlns="http://www.w3.org/2000/svg">
<rect y="0.5" width="40" height="40" rx="8" fill="#FEFEFE"/>
<path d="M31.8602 13.9339C31.809 13.6089 31.6603 13.3072 31.4337 13.0686C31.2071 12.8301 30.9134 12.6661 30.5914 12.5984L26.6717 11.737C26.2514 11.6453 25.8163 11.645 25.3958 11.736C24.9753 11.827 24.5793 12.0072 24.2344 12.2645L12.6489 20.7049L9.40364 20.5714C9.14276 20.562 8.88557 20.6351 8.66859 20.7803C8.45162 20.9254 8.2859 21.1353 8.19497 21.38C8.10404 21.6247 8.09252 21.8918 8.16205 22.1434C8.23159 22.395 8.37863 22.6183 8.5823 22.7816L11.9211 25.4059C12.3217 25.8934 12.5888 25.7999 19.2196 22.1873L19.8406 28.4776C19.851 28.6491 19.9098 28.8143 20.0103 28.9538C20.1107 29.0933 20.2487 29.2014 20.4082 29.2655C20.523 29.3109 20.6454 29.3335 20.7688 29.3323C21.0171 29.3247 21.2544 29.2274 21.4366 29.0585L23.0325 27.6028C23.1914 27.4556 23.299 27.2614 23.3397 27.0486L24.802 19.1023C27.1859 17.7668 29.4429 16.5114 31.0522 15.5966C31.3401 15.4346 31.5717 15.1887 31.7161 14.8916C31.8605 14.5944 31.9108 14.2603 31.8602 13.9339ZM30.3911 14.4347C28.7217 15.3829 26.3846 16.7117 23.8739 18.0873L23.6001 18.2409L22.0442 26.7013L21.0626 27.5961L20.3281 20.0505L19.44 20.5046C14.6522 23.1756 13.0562 23.9502 12.5087 24.1906L9.63735 21.9135L13.0295 22.0604L25.0491 13.3396C25.238 13.1983 25.4546 13.0986 25.6848 13.0468C25.9149 12.995 26.1534 12.9924 26.3846 13.0391L30.291 13.8805C30.3512 13.8914 30.4063 13.9212 30.4483 13.9657C30.4904 14.0101 30.5171 14.0668 30.5247 14.1275C30.5384 14.1863 30.5329 14.2479 30.5088 14.3032C30.4847 14.3586 30.4435 14.4047 30.3911 14.4347Z" fill="#591DDD"/>
</svg>
