<svg width="40" height="41" viewBox="0 0 40 41" fill="none" xmlns="http://www.w3.org/2000/svg">
<rect y="0.5" width="40" height="40" rx="8" fill="#FEFEFE"/>
<path d="M18.6055 14.1992C18.0555 14.1992 17.5845 14.0032 17.1925 13.6112C16.8005 13.2192 16.6048 12.7486 16.6055 12.1992C16.6055 11.6492 16.8015 11.1782 17.1935 10.7862C17.5855 10.3942 18.0561 10.1986 18.6055 10.1992C19.1555 10.1992 19.6265 10.3952 20.0185 10.7872C20.4105 11.1792 20.6061 11.6499 20.6055 12.1992C20.6055 12.7492 20.4095 13.2202 20.0175 13.6122C19.6255 14.0042 19.1548 14.1999 18.6055 14.1992ZM17.1055 28.1992V16.1992H20.1055V28.1992H17.1055Z" fill="#591DDD"/>
</svg>
