<svg width="40" height="41" viewBox="0 0 40 41" fill="none" xmlns="http://www.w3.org/2000/svg">
<rect y="0.5" width="40" height="40" rx="8" fill="#FEFEFE"/>
<path d="M20.5004 10.2012L20.2686 10.3742C17.5594 12.4106 14.8931 13.7455 10.822 14.4238L10.5 14.4754V14.8017C10.5 15.6174 10.8607 16.8926 11.4489 18.4554C12.0328 20.0226 12.8571 21.8387 13.8112 23.5733C14.7686 25.3079 15.8463 26.9609 16.9798 28.1974C18.1004 29.4382 19.2768 30.2969 20.5004 30.2969C21.7241 30.2969 22.9005 29.4382 24.0297 28.1974C25.1546 26.9609 26.2323 25.3079 27.194 23.5733C28.1472 21.8387 28.9672 20.0226 29.5554 18.4554C30.1393 16.8926 30.5 15.6174 30.5 14.8017V14.4754L30.1823 14.4238C26.1206 13.7455 23.4458 12.4106 20.7323 10.3742L20.5004 10.2012ZM20.5004 11.1543C23.1238 13.0881 25.8415 14.4238 29.7057 15.1194C29.6241 15.772 29.3193 16.8969 28.8341 18.1892C28.6581 18.6529 28.4649 19.1424 28.2459 19.649H21.8744V17.5495L24.6222 18.2365L20.5004 13.4295L16.3787 18.2365L19.1265 17.5495V19.649H12.7537C12.539 19.1424 12.3419 18.6529 12.1659 18.1892C11.685 16.8969 11.3759 15.772 11.2943 15.1194C15.1593 14.4238 17.8728 13.0881 20.5004 11.1543Z" fill="#591DDD"/>
</svg>
