<svg width="40" height="40" viewBox="0 0 40 40" fill="none" xmlns="http://www.w3.org/2000/svg">
<rect width="40" height="40" rx="8" fill="#FEFEFE"/>
<path d="M23.754 17C24.72 17 25.504 17.784 25.504 18.75V25.499C25.504 26.958 24.9244 28.3572 23.8928 29.3888C22.8612 30.4204 21.462 31 20.003 31C18.544 31 17.1448 30.4204 16.1132 29.3888C15.0816 28.3572 14.502 26.958 14.502 25.499V18.75C14.502 17.784 15.285 17 16.252 17H23.754ZM9.75 17L14.132 16.998C13.7716 17.4322 13.5547 17.9674 13.511 18.53L13.501 18.75V25.499C13.501 26.632 13.792 27.698 14.301 28.626C13.6159 28.9249 12.8672 29.0485 12.1224 28.9856C11.3776 28.9228 10.6601 28.6754 10.0349 28.2658C9.40958 27.8563 8.89614 27.2975 8.54088 26.6399C8.18562 25.9822 7.99974 25.2465 8 24.499V18.75C8.00027 18.2858 8.18486 17.8407 8.51321 17.5125C8.84156 17.1843 9.28578 17 9.75 17ZM25.874 16.998L30.25 17C31.216 17 32 17.784 32 18.75V24.5C32.0003 25.2472 31.8146 25.9826 31.4595 26.6401C31.1045 27.2975 30.5914 27.8562 29.9664 28.2657C29.3415 28.6752 28.6244 28.9227 27.8799 28.9857C27.1354 29.0488 26.3869 28.9255 25.702 28.627L25.758 28.525C26.187 27.712 26.448 26.796 26.496 25.825L26.504 25.499V18.75C26.504 18.084 26.267 17.474 25.874 16.998ZM20 9C20.4596 9 20.9148 9.09053 21.3394 9.26642C21.764 9.44231 22.1499 9.70012 22.4749 10.0251C22.7999 10.3501 23.0577 10.736 23.2336 11.1606C23.4095 11.5852 23.5 12.0404 23.5 12.5C23.5 12.9596 23.4095 13.4148 23.2336 13.8394C23.0577 14.264 22.7999 14.6499 22.4749 14.9749C22.1499 15.2999 21.764 15.5577 21.3394 15.7336C20.9148 15.9095 20.4596 16 20 16C19.0717 16 18.1815 15.6313 17.5251 14.9749C16.8687 14.3185 16.5 13.4283 16.5 12.5C16.5 11.5717 16.8687 10.6815 17.5251 10.0251C18.1815 9.36875 19.0717 9 20 9ZM28.003 10C28.397 10 28.7871 10.0776 29.1511 10.2284C29.515 10.3791 29.8457 10.6001 30.1243 10.8787C30.4029 11.1573 30.6239 11.488 30.7746 11.8519C30.9254 12.2159 31.003 12.606 31.003 13C31.003 13.394 30.9254 13.7841 30.7746 14.1481C30.6239 14.512 30.4029 14.8427 30.1243 15.1213C29.8457 15.3999 29.515 15.6209 29.1511 15.7716C28.7871 15.9224 28.397 16 28.003 16C27.2074 16 26.4443 15.6839 25.8817 15.1213C25.3191 14.5587 25.003 13.7956 25.003 13C25.003 12.2044 25.3191 11.4413 25.8817 10.8787C26.4443 10.3161 27.2074 10 28.003 10ZM11.997 10C12.391 10 12.7811 10.0776 13.1451 10.2284C13.509 10.3791 13.8397 10.6001 14.1183 10.8787C14.3969 11.1573 14.6179 11.488 14.7686 11.8519C14.9194 12.2159 14.997 12.606 14.997 13C14.997 13.394 14.9194 13.7841 14.7686 14.1481C14.6179 14.512 14.3969 14.8427 14.1183 15.1213C13.8397 15.3999 13.509 15.6209 13.1451 15.7716C12.7811 15.9224 12.391 16 11.997 16C11.2014 16 10.4383 15.6839 9.87568 15.1213C9.31307 14.5587 8.997 13.7956 8.997 13C8.997 12.2044 9.31307 11.4413 9.87568 10.8787C10.4383 10.3161 11.2014 10 11.997 10Z" fill="#591DDD"/>
</svg>
