<svg width="40" height="41" viewBox="0 0 40 41" fill="none" xmlns="http://www.w3.org/2000/svg">
<rect y="0.5" width="40" height="40" rx="8" fill="#FEFEFE"/>
<path d="M26.4373 24.6307L30.7202 28.9127L29.3053 30.3277L25.0233 26.0447C23.43 27.3219 21.4483 28.0166 19.4062 28.0137C14.4383 28.0137 10.4062 23.9817 10.4062 19.0137C10.4062 14.0457 14.4383 10.0137 19.4062 10.0137C24.3743 10.0137 28.4062 14.0457 28.4062 19.0137C28.4092 21.0557 27.7145 23.0374 26.4373 24.6307ZM24.4312 23.8887C25.7004 22.5836 26.4091 20.8341 26.4062 19.0137C26.4062 15.1467 23.2733 12.0137 19.4062 12.0137C15.5392 12.0137 12.4062 15.1467 12.4062 19.0137C12.4062 22.8807 15.5392 26.0137 19.4062 26.0137C21.2267 26.0165 22.9761 25.3078 24.2812 24.0387L24.4312 23.8887Z" fill="#591DDD"/>
</svg>
