<svg width="40" height="41" viewBox="0 0 40 41" fill="none" xmlns="http://www.w3.org/2000/svg">
<rect y="0.5" width="40" height="40" rx="8" fill="#FEFEFE"/>
<g clip-path="url(#clip0_561_40286)">
<path d="M22.6246 13.9319C22.6632 13.8096 22.6665 13.6771 22.6343 13.5525C22.602 13.428 22.5358 13.3177 22.4446 13.2369L22.2444 13.0757C21.5415 12.5595 20.7434 12.2251 19.9089 12.0969C18.398 11.8744 16.4731 12.3332 14.6011 14.7132H13.4154C13.3414 14.7132 13.2681 14.7294 13.1998 14.761C13.1314 14.7925 13.0694 14.8387 13.0171 14.8969L11.5704 16.5057C11.4653 16.6228 11.4062 16.7815 11.4062 16.9469C11.4062 17.1123 11.4653 17.271 11.5704 17.3882L14.4628 20.6119C14.515 20.6701 14.5771 20.7163 14.6454 20.7478C14.7138 20.7793 14.787 20.7955 14.861 20.7955C14.935 20.7955 15.0083 20.7793 15.0766 20.7478C15.1449 20.7163 15.207 20.6701 15.2593 20.6119L16.706 18.9994C16.8112 18.8823 16.8702 18.7236 16.8703 18.5582V17.7594L26.3056 28.8507C26.3537 28.9231 26.4152 28.9832 26.4861 29.0267C26.5569 29.0703 26.6354 29.0964 26.7162 29.1031C26.7969 29.1099 26.878 29.0972 26.954 29.0659C27.0299 29.0346 27.0989 28.9855 27.1561 28.9219L28.8436 27.0469C28.9456 26.9335 29.0045 26.7808 29.0081 26.6205C29.0116 26.4602 28.9596 26.3045 28.8628 26.1857L18.5926 15.3982C19.433 14.8282 20.5861 14.3494 22.0936 14.3494C22.2102 14.3495 22.3238 14.3094 22.419 14.2346C22.5141 14.1598 22.5859 14.054 22.6246 13.9319Z" fill="#591DDD"/>
</g>
<defs>
<clipPath id="clip0_561_40286">
<rect width="18" height="20" fill="white" transform="translate(11.4062 10.7969)"/>
</clipPath>
</defs>
</svg>
