<svg width="40" height="40" viewBox="0 0 40 40" fill="none" xmlns="http://www.w3.org/2000/svg">
<rect width="40" height="40" rx="8" fill="#FEFEFE"/>
<path d="M25.5312 17.5473V17.0469C25.5312 14.7936 22.1325 13.0938 17.625 13.0938C13.1175 13.0938 9.71875 14.7936 9.71875 17.0469V20.6406C9.71875 22.5175 12.0771 24.0089 15.4688 24.4554V24.9531C15.4688 27.2064 18.8675 28.9062 23.375 28.9062C27.8825 28.9062 31.2812 27.2064 31.2812 24.9531V21.3594C31.2812 19.4996 28.9974 18.0064 25.5312 17.5473ZM29.8438 21.3594C29.8438 22.5471 27.0775 23.875 23.375 23.875C23.0399 23.875 22.7075 23.8633 22.3795 23.8418C24.3175 23.1356 25.5312 21.9883 25.5312 20.6406V19.0001C28.2149 19.3999 29.8438 20.4852 29.8438 21.3594ZM15.4688 22.999V20.8616C16.1837 20.9548 16.904 21.001 17.625 21C18.346 21.001 19.0663 20.9548 19.7812 20.8616V22.999C19.0674 23.1045 18.3466 23.157 17.625 23.1562C16.9034 23.157 16.1826 23.1045 15.4688 22.999ZM24.0938 19.3765V20.6406C24.0938 21.3944 22.9788 22.2039 21.2188 22.6954V20.5957C22.3786 20.3145 23.3606 19.8958 24.0938 19.3765ZM17.625 14.5312C21.3275 14.5312 24.0938 15.8591 24.0938 17.0469C24.0938 18.2346 21.3275 19.5625 17.625 19.5625C13.9225 19.5625 11.1562 18.2346 11.1562 17.0469C11.1562 15.8591 13.9225 14.5312 17.625 14.5312ZM11.1562 20.6406V19.3765C11.8894 19.8958 12.8714 20.3145 14.0312 20.5957V22.6954C12.2712 22.2039 11.1562 21.3944 11.1562 20.6406ZM16.9062 24.9531V24.5785C17.1425 24.5875 17.3815 24.5938 17.625 24.5938C17.9736 24.5938 18.3141 24.5821 18.6483 24.5623C19.0196 24.6952 19.3978 24.808 19.7812 24.9001V27.0079C18.0212 26.5164 16.9062 25.7069 16.9062 24.9531ZM21.2188 27.3115V25.1687C21.9335 25.2648 22.6538 25.3129 23.375 25.3125C24.096 25.3135 24.8163 25.2673 25.5312 25.1741V27.3115C24.1014 27.5212 22.6486 27.5212 21.2188 27.3115ZM26.9688 27.0079V24.9082C28.1286 24.627 29.1106 24.2083 29.8438 23.689V24.9531C29.8438 25.7069 28.7288 26.5164 26.9688 27.0079Z" fill="#591DDD"/>
</svg>
