<svg width="40" height="41" viewBox="0 0 40 41" fill="none" xmlns="http://www.w3.org/2000/svg">
<rect y="0.625" width="40" height="40" rx="8" fill="#FEFEFE"/>
<path d="M24.5569 21.531L24.1019 21.984C24.1019 21.984 23.0189 23.06 20.0639 20.122C17.1089 17.184 18.1919 16.108 18.1919 16.108L18.4779 15.822C19.1849 15.12 19.2519 13.992 18.6349 13.168L17.3749 11.485C16.6109 10.465 15.1359 10.33 14.2609 11.2L12.6909 12.76C12.2579 13.192 11.9679 13.75 12.0029 14.37C12.0929 15.957 12.8109 19.37 16.8149 23.352C21.0619 27.574 25.0469 27.742 26.6759 27.59C27.1919 27.542 27.6399 27.28 28.0009 26.92L29.4209 25.508C30.3809 24.555 30.1109 22.92 28.8829 22.253L26.9729 21.214C26.1669 20.776 25.1869 20.905 24.5569 21.531Z" fill="#591DDD"/>
</svg>
