<svg width="60" height="61" viewBox="0 0 60 61" fill="none" xmlns="http://www.w3.org/2000/svg">
<rect y="0.625" width="60" height="60" rx="15" fill="#FEFEFE"/>
<path d="M34.5569 31.531L34.1019 31.984C34.1019 31.984 33.0189 33.06 30.0639 30.122C27.1089 27.184 28.1919 26.108 28.1919 26.108L28.4779 25.822C29.1849 25.12 29.2519 23.992 28.6349 23.168L27.3749 21.485C26.6109 20.465 25.1359 20.33 24.2609 21.2L22.6909 22.76C22.2579 23.192 21.9679 23.75 22.0029 24.37C22.0929 25.957 22.8109 29.37 26.8149 33.352C31.0619 37.574 35.0469 37.742 36.6759 37.59C37.1919 37.542 37.6399 37.28 38.0009 36.92L39.4209 35.508C40.3809 34.555 40.1109 32.92 38.8829 32.253L36.9729 31.214C36.1669 30.776 35.1869 30.905 34.5569 31.531Z" fill="#591DDD"/>
</svg>
